<?xml version="1.0" encoding="UTF-8" standalone="no"?>
<svg
   xmlns:dc="http://purl.org/dc/elements/1.1/"
   xmlns:cc="http://creativecommons.org/ns#"
   xmlns:rdf="http://www.w3.org/1999/02/22-rdf-syntax-ns#"
   xmlns:svg="http://www.w3.org/2000/svg"
   xmlns="http://www.w3.org/2000/svg"
   xmlns:sodipodi="http://sodipodi.sourceforge.net/DTD/sodipodi-0.dtd"
   xmlns:inkscape="http://www.inkscape.org/namespaces/inkscape"
   width="809.01697"
   height="500"
   version="1.1"
   id="svg5077"
   sodipodi:docname="POIWhite3.svg"
   inkscape:version="0.92.1 r15371">
  <metadata
     id="metadata5083">
    <rdf:RDF>
      <cc:Work
         rdf:about="">
        <dc:format>image/svg+xml</dc:format>
        <dc:type
           rdf:resource="http://purl.org/dc/dcmitype/StillImage" />
        <dc:title />
      </cc:Work>
    </rdf:RDF>
  </metadata>
  <defs
     id="defs5081">
    <linearGradient
       id="linearGradient3310"
       spreadMethod="pad"
       gradientTransform="matrix(55.421875,0,0,-55.421875,425.00488,286.23437)"
       gradientUnits="userSpaceOnUse"
       y2="0"
       x2="1"
       y1="0"
       x1="0">
      <stop
         id="stop3296"
         offset="0"
         style="stop-opacity:1;stop-color:#a7a6a3" />
      <stop
         id="stop3298"
         offset="0.0337067"
         style="stop-opacity:1;stop-color:#a7a6a3" />
      <stop
         id="stop3300"
         offset="0.06487564"
         style="stop-opacity:1;stop-color:#a7a6a3" />
      <stop
         id="stop3302"
         offset="0.219101"
         style="stop-opacity:1;stop-color:#bbbcc1" />
      <stop
         id="stop3304"
         offset="0.30316223"
         style="stop-opacity:1;stop-color:#bbbcc1" />
      <stop
         id="stop3306"
         offset="0.719101"
         style="stop-opacity:1;stop-color:#70787d" />
      <stop
         id="stop3308"
         offset="1"
         style="stop-opacity:1;stop-color:#999fa4" />
    </linearGradient>
    <radialGradient
       id="radialGradient2440"
       spreadMethod="pad"
       gradientTransform="matrix(46.704147,-23.105392,-23.105392,-46.704147,745.85645,380.12207)"
       gradientUnits="userSpaceOnUse"
       r="1"
       cy="0"
       cx="0"
       fy="0"
       fx="0">
      <stop
         id="stop2426"
         offset="0"
         style="stop-opacity:1;stop-color:#cdcfd0" />
      <stop
         id="stop2428"
         offset="0.00561523"
         style="stop-opacity:1;stop-color:#cdcfd0" />
      <stop
         id="stop2430"
         offset="0.05473133"
         style="stop-opacity:1;stop-color:#cdcfd0" />
      <stop
         id="stop2432"
         offset="0.29776"
         style="stop-opacity:1;stop-color:#c6c7c8" />
      <stop
         id="stop2434"
         offset="0.657303"
         style="stop-opacity:1;stop-color:#b1b3b4" />
      <stop
         id="stop2436"
         offset="0.71491806"
         style="stop-opacity:1;stop-color:#b1b3b4" />
      <stop
         id="stop2438"
         offset="1"
         style="stop-opacity:1;stop-color:#a5a6a8" />
    </radialGradient>
    <linearGradient
       id="linearGradient3310-1"
       spreadMethod="pad"
       gradientTransform="matrix(55.421875,0,0,-55.421875,425.00488,286.23437)"
       gradientUnits="userSpaceOnUse"
       y2="0"
       x2="1"
       y1="0"
       x1="0">
      <stop
         id="stop3296-7"
         offset="0"
         style="stop-opacity:1;stop-color:#a7a6a3" />
      <stop
         id="stop3298-9"
         offset="0.0337067"
         style="stop-opacity:1;stop-color:#a7a6a3" />
      <stop
         id="stop3300-2"
         offset="0.06487564"
         style="stop-opacity:1;stop-color:#a7a6a3" />
      <stop
         id="stop3302-1"
         offset="0.219101"
         style="stop-opacity:1;stop-color:#bbbcc1" />
      <stop
         id="stop3304-9"
         offset="0.30316223"
         style="stop-opacity:1;stop-color:#bbbcc1" />
      <stop
         id="stop3306-4"
         offset="0.719101"
         style="stop-opacity:1;stop-color:#70787d" />
      <stop
         id="stop3308-7"
         offset="1"
         style="stop-opacity:1;stop-color:#999fa4" />
    </linearGradient>
  </defs>
  <sodipodi:namedview
     pagecolor="#ffffff"
     bordercolor="#666666"
     borderopacity="1"
     objecttolerance="10"
     gridtolerance="10"
     guidetolerance="10"
     inkscape:pageopacity="0"
     inkscape:pageshadow="2"
     inkscape:window-width="1360"
     inkscape:window-height="706"
     id="namedview5079"
     showgrid="false"
     inkscape:zoom="0.75943268"
     inkscape:cx="394.23268"
     inkscape:cy="205.47121"
     inkscape:window-x="-8"
     inkscape:window-y="-8"
     inkscape:window-maximized="1"
     inkscape:current-layer="svg5077" />
  <path
     inkscape:connector-curvature="0"
     d="m 364.29896,386.27473 8.58345,8.90792 11.17066,-5.0496 c 3.32212,2.04425 6.86056,3.58163 10.53186,4.59675 l -0.0118,0.0327 3.90625,11.69158 12.35641,0.23528 4.32905,-11.53624 -0.002,-0.0194 c 3.70434,-0.8812 7.31472,-2.26777 10.70096,-4.18982 l 11.0285,5.50952 8.8951,-8.58391 -5.098,-11.22449 c 2.04354,-3.32456 3.55593,-6.88043 4.56621,-10.55727 l 0.0261,0.003 11.67561,-3.90895 0.21439,-12.35757 -11.52497,-4.33396 -0.0261,-0.003 c -0.88154,-3.45209 -2.22255,-7.36674 -4.1447,-10.7646 l 5.5378,-11.07067 -8.58264,-8.91084 -11.25793,5.13206 c -3.31886,-2.04422 -6.90267,-3.54487 -10.56802,-4.55973 l -0.013,-0.0112 -3.9218,-11.68158 -13.37384,0.16919 -5.34598,11.93858 0.007,0.0186 c -2.4151,0.47341 -6.30072,1.86791 -9.69318,3.78404 l -10.51977,-5.70427 -8.64379,8.4838 5.22901,11.17559 c -2.0386,3.32391 -3.49579,6.8581 -4.5074,10.53154 l 0.0104,-0.0116 -11.65915,3.90118 -0.21356,12.36443 11.53686,4.3345 0.0229,0.003 c 0.88507,3.70264 2.30834,7.28225 4.22897,10.67614 z m 26.96966,-46.08093 c 8.18422,-7.89761 21.2265,-7.65787 29.12703,0.54331 7.90188,8.198 7.67127,21.24876 -0.51737,29.15005 -8.19053,7.90138 -21.22875,7.65875 -29.13119,-0.53905 -7.89838,-8.20396 -7.66463,-21.25334 0.52153,-29.15431 z"
     id="path5630-3-7-5-2-7-0-3-2-8-5-6"
     style="opacity:0.033;fill:#999999;stroke-width:0.60554934" />
  <path
     inkscape:connector-curvature="0"
     d="m 364.29897,184.80855 8.58345,8.90792 11.17066,-5.0496 c 3.32212,2.04425 6.86056,3.58163 10.53186,4.59675 l -0.0118,0.0327 3.90625,11.69158 12.35641,0.23528 4.32905,-11.53624 -0.002,-0.0194 c 3.70434,-0.8812 7.31472,-2.26777 10.70096,-4.18982 l 11.0285,5.50952 8.8951,-8.58391 -5.098,-11.22449 c 2.04354,-3.32456 3.55593,-6.88043 4.56621,-10.55727 l 0.0261,0.003 11.67561,-3.90895 0.21439,-12.35757 -11.52497,-4.33396 -0.0261,-0.003 c -0.88154,-3.45209 -2.22255,-7.36674 -4.1447,-10.7646 l 5.5378,-11.07067 -8.58264,-8.91084 -11.25793,5.13206 c -3.31886,-2.04422 -6.90267,-3.54487 -10.56802,-4.55973 l -0.013,-0.0112 -3.9218,-11.68158 -13.37384,0.16919 -5.34598,11.93858 0.007,0.0186 c -2.4151,0.47341 -6.30072,1.86791 -9.69318,3.78404 l -10.51977,-5.70427 -8.64379,8.4838 5.22901,11.17559 c -2.0386,3.32391 -3.49579,6.8581 -4.5074,10.53154 l 0.0104,-0.0116 -11.65915,3.90118 -0.21356,12.36443 11.53686,4.3345 0.0229,0.003 c 0.88507,3.70264 2.30834,7.28225 4.22897,10.67614 z m 26.96966,-46.08093 c 8.18422,-7.89761 21.2265,-7.65787 29.12703,0.54331 7.90188,8.198 7.67127,21.24876 -0.51737,29.15005 -8.19053,7.90138 -21.22875,7.65875 -29.13119,-0.53905 -7.89838,-8.20396 -7.66463,-21.25334 0.52153,-29.15431 z"
     id="path5630-3-7-5-2-7-0-3-2-8-5"
     style="opacity:0.033;fill:#999999;stroke-width:0.60554934" />
  <path
     inkscape:connector-curvature="0"
     d="m 451.20594,126.87056 8.58345,8.90792 11.17066,-5.0496 c 3.32212,2.04425 6.86056,3.58163 10.53186,4.59675 l -0.0118,0.0327 3.90625,11.69159 12.35641,0.23528 4.32905,-11.53625 -0.002,-0.0194 c 3.70434,-0.8812 7.31472,-2.26777 10.70096,-4.18982 l 11.0285,5.50952 8.8951,-8.58391 -5.098,-11.22449 c 2.04354,-3.32456 3.55593,-6.88043 4.56621,-10.55727 l 0.0261,0.003 11.67561,-3.90895 0.21439,-12.357564 -11.52497,-4.33396 -0.0261,-0.003 c -0.88154,-3.45209 -2.22255,-7.36674 -4.1447,-10.7646 l 5.5378,-11.07067 -8.58264,-8.91084 -11.25793,5.13206 c -3.31886,-2.04422 -6.90267,-3.54487 -10.56802,-4.55973 l -0.013,-0.0112 -3.9218,-11.68158 -13.37384,0.16919 -5.34598,11.93858 0.007,0.0186 c -2.4151,0.47341 -6.30072,1.86791 -9.69318,3.78404 l -10.51977,-5.70427 -8.64379,8.4838 5.22901,11.17559 c -2.0386,3.32391 -3.49579,6.8581 -4.5074,10.53154 l 0.0104,-0.0116 -11.65915,3.90118 -0.21356,12.364424 11.53686,4.3345 0.0229,0.003 c 0.88507,3.70264 2.30834,7.28225 4.22897,10.67614 z M 478.1756,80.789636 c 8.18422,-7.89761 21.2265,-7.65787 29.12703,0.54331 7.90188,8.198 7.67127,21.248754 -0.51737,29.150044 -8.19053,7.90138 -21.22875,7.65875 -29.13119,-0.53905 -7.89838,-8.20396 -7.66463,-21.253334 0.52153,-29.154304 z"
     id="path5630-3-7-5-2-7-0-3-2-8"
     style="opacity:0.066;fill:#999999;stroke-width:0.60554934" />
  <path
     inkscape:connector-curvature="0"
     d="m 277.39198,128.18732 8.58345,8.90792 11.17066,-5.0496 c 3.32212,2.04425 6.86056,3.58163 10.53186,4.59675 l -0.0118,0.0327 3.90625,11.6916 12.35641,0.23528 4.32905,-11.53626 -0.002,-0.0194 c 3.70434,-0.8812 7.31472,-2.26777 10.70096,-4.18982 l 11.0285,5.50952 8.8951,-8.58391 -5.098,-11.22448 c 2.04354,-3.32456 3.55593,-6.88043 4.56621,-10.55727 l 0.0261,0.003 11.67561,-3.90895 0.21439,-12.357563 -11.52497,-4.33396 -0.0261,-0.003 c -0.88154,-3.45209 -2.22255,-7.36674 -4.1447,-10.7646 l 5.5378,-11.07067 -8.58264,-8.91084 -11.25793,5.13206 c -3.31886,-2.04422 -6.90267,-3.54487 -10.56802,-4.55973 l -0.013,-0.0112 -3.9218,-11.68158 -13.37384,0.16919 -5.34598,11.93858 0.007,0.0186 c -2.4151,0.47341 -6.30072,1.86791 -9.69318,3.78404 l -10.51977,-5.70427 -8.64379,8.4838 5.22901,11.17559 c -2.0386,3.32391 -3.49579,6.8581 -4.5074,10.53154 l 0.0104,-0.0116 -11.65915,3.90118 -0.21356,12.364423 11.53686,4.3345 0.0229,0.003 c 0.88507,3.70264 2.30834,7.28225 4.22897,10.67614 z m 26.96966,-46.080913 c 8.18422,-7.89761 21.2265,-7.65787 29.12703,0.54331 7.90188,8.198 7.67127,21.248753 -0.51737,29.150043 -8.19053,7.90138 -21.22875,7.65875 -29.13119,-0.53905 -7.89838,-8.20396 -7.66463,-21.253333 0.52153,-29.154303 z"
     id="path5630-3-7-5-2-7-0-3-2"
     style="opacity:0.066;fill:#999999;stroke-width:0.60554934" />
  <path
     inkscape:connector-curvature="0"
     d="m 272.12489,440.26238 8.58345,8.90792 11.17066,-5.0496 c 3.32212,2.04425 6.86056,3.58163 10.53186,4.59675 l -0.0118,0.0327 3.90625,11.6916 12.35641,0.23528 4.32905,-11.53626 -0.002,-0.0194 c 3.70434,-0.8812 7.31472,-2.26777 10.70096,-4.18982 l 11.0285,5.50952 8.8951,-8.58391 -5.098,-11.22448 c 2.04354,-3.32456 3.55593,-6.88043 4.56621,-10.55727 l 0.0261,0.003 11.67561,-3.90895 0.21439,-12.35756 -11.52497,-4.33396 -0.0261,-0.003 c -0.88154,-3.45209 -2.22255,-7.36674 -4.1447,-10.7646 l 5.5378,-11.07067 -8.58264,-8.91084 -11.25793,5.13206 c -3.31886,-2.04422 -6.90267,-3.54487 -10.56802,-4.55973 l -0.013,-0.0112 -3.9218,-11.68158 -13.37384,0.16919 -5.34598,11.93858 0.007,0.0186 c -2.4151,0.47341 -6.30072,1.86791 -9.69318,3.78404 l -10.51977,-5.70427 -8.64379,8.4838 5.22901,11.17559 c -2.0386,3.32391 -3.49579,6.8581 -4.5074,10.53154 l 0.0104,-0.0116 -11.65915,3.90118 -0.21356,12.36442 11.53686,4.3345 0.0229,0.003 c 0.88507,3.70264 2.30834,7.28225 4.22897,10.67614 z m 26.96966,-46.08091 c 8.18422,-7.89761 21.2265,-7.65787 29.12703,0.54331 7.90188,8.198 7.67127,21.24875 -0.51737,29.15004 -8.19053,7.90138 -21.22875,7.65875 -29.13119,-0.53905 -7.89838,-8.20396 -7.66463,-21.25333 0.52153,-29.1543 z"
     id="path5630-3-7-5-2-7-0-3"
     style="opacity:0.066;fill:#999999;stroke-width:0.60554934" />
  <path
     inkscape:connector-curvature="0"
     d="m 455.15626,437.62883 8.58345,8.90792 11.17066,-5.0496 c 3.32212,2.04425 6.86056,3.58163 10.53186,4.59675 l -0.0118,0.0327 3.90625,11.6916 12.35641,0.23528 4.32905,-11.53626 -0.002,-0.0194 c 3.70434,-0.8812 7.31472,-2.26777 10.70096,-4.18982 l 11.0285,5.50952 8.8951,-8.58391 -5.098,-11.22448 c 2.04354,-3.32456 3.55593,-6.88043 4.56621,-10.55727 l 0.0261,0.003 11.67561,-3.90895 0.21439,-12.35756 -11.52497,-4.33396 -0.0261,-0.003 c -0.88154,-3.45209 -2.22255,-7.36674 -4.1447,-10.7646 l 5.5378,-11.07067 -8.58264,-8.91084 -11.25793,5.13206 c -3.31886,-2.04422 -6.90267,-3.54487 -10.56802,-4.55973 l -0.013,-0.0112 -3.9218,-11.68158 -13.37384,0.16919 -5.34598,11.93858 0.007,0.0186 c -2.4151,0.47341 -6.30072,1.86791 -9.69318,3.78404 l -10.51977,-5.70427 -8.64379,8.4838 5.22901,11.17559 c -2.0386,3.32391 -3.49579,6.8581 -4.5074,10.53154 l 0.0104,-0.0116 -11.65915,3.90118 -0.21356,12.36442 11.53686,4.3345 0.0229,0.003 c 0.88507,3.70264 2.30834,7.28225 4.22897,10.67614 z m 26.96966,-46.08091 c 8.18422,-7.89761 21.2265,-7.65787 29.12703,0.54331 7.90188,8.198 7.67127,21.24875 -0.51737,29.15004 -8.19053,7.90138 -21.22875,7.65875 -29.13119,-0.53905 -7.89838,-8.20396 -7.66463,-21.25333 0.52153,-29.1543 z"
     id="path5630-3-7-5-2-7-0"
     style="opacity:0.066;fill:#999999;stroke-width:0.60554934" />
  <path
     inkscape:connector-curvature="0"
     d="m 479.23831,331.16353 4.7298,11.43046 12.24363,-0.61315 c 2.34402,3.11785 5.0748,5.84308 8.12027,8.13087 l -0.023,0.0261 -0.64153,12.31018 11.41386,4.73918 8.24919,-9.15299 0.005,-0.0189 c 3.76994,0.53499 7.6373,0.56528 11.49195,0.0152 l 8.24857,9.16206 11.41872,-4.73494 -0.63851,-12.3114 c 3.1181,-2.34656 5.82647,-5.10269 8.11179,-8.1551 l 0.023,0.0127 12.29629,0.63314 4.72013,-11.42259 -9.14067,-8.24961 -0.023,-0.0127 c 0.44241,-3.53529 0.62641,-7.66917 0.0805,-11.53467 l 9.20382,-8.27748 -4.72799,-11.43289 -12.35499,0.65798 c -2.34101,-3.11663 -5.12745,-5.82428 -8.16749,-8.10965 l -0.008,-0.0152 0.62338,-12.30655 -12.50872,-4.73493 -9.34281,9.15541 v 0.02 c -2.42088,-0.4429 -6.54729,-0.56649 -10.40556,-0.0242 l -7.70388,-9.15722 -11.1482,4.73371 0.77832,12.31383 c -3.11324,2.34777 -5.76232,5.10391 -8.04763,8.15268 l 0.0139,-0.007 -12.27813,-0.63436 -4.72195,11.42926 9.15157,8.25445 0.02,0.0115 c -0.53078,3.76978 -0.51565,7.62193 0.0303,11.48318 z m 41.95761,-33.02086 c 10.50604,-4.35625 22.5566,0.63797 26.90936,11.16085 4.35517,10.52042 -0.63367,22.58221 -11.14518,26.94027 -10.51329,4.35746 -22.55902,-0.63797 -26.9148,-11.15841 -4.34972,-10.52468 0.64154,-22.58404 11.15062,-26.94271 z"
     id="path5630-3-7-1-5-6"
     style="opacity:0.333;fill:#999999;stroke-width:0.60554934" />
  <path
     inkscape:connector-curvature="0"
     d="m 614.35433,333.16814 4.72979,11.43046 12.24364,-0.61315 c 2.34402,3.11784 5.07479,5.84308 8.12026,8.13086 l -0.023,0.0261 -0.64153,12.31019 11.41387,4.73917 8.24918,-9.15298 0.005,-0.0189 c 3.76995,0.53499 7.63731,0.56528 11.49196,0.0152 l 8.24856,9.16205 11.41873,-4.73493 -0.63851,-12.31141 c 3.1181,-2.34655 5.82647,-5.10269 8.11178,-8.15509 l 0.023,0.0127 12.2963,0.63314 4.72013,-11.42259 -9.14067,-8.24961 -0.023,-0.0127 c 0.44241,-3.53529 0.62641,-7.66918 0.0805,-11.53467 l 9.20381,-8.27748 -4.72798,-11.43289 -12.355,0.65797 c -2.341,-3.11662 -5.12744,-5.82428 -8.16748,-8.10964 l -0.008,-0.0152 0.62338,-12.30655 -12.50873,-4.73493 -9.3428,9.1554 v 0.02 c -2.42088,-0.4429 -6.54729,-0.56649 -10.40557,-0.0242 l -7.70387,-9.15721 -11.14821,4.73371 0.77832,12.31383 c -3.11324,2.34776 -5.76231,5.10391 -8.04762,8.15267 l 0.0139,-0.007 -12.27814,-0.63435 -4.72194,11.42926 9.15157,8.25445 0.02,0.0115 c -0.53078,3.76977 -0.51565,7.62193 0.0303,11.48318 z m 41.9576,-33.02087 c 10.50605,-4.35625 22.5566,0.63797 26.90937,11.16085 4.35517,10.52043 -0.63367,22.58222 -11.14518,26.94028 -10.51329,4.35746 -22.55902,-0.63797 -26.9148,-11.15841 -4.34973,-10.52468 0.64154,-22.58404 11.15061,-26.94272 z"
     id="path5630-3-7-51-0"
     style="opacity:0.2;fill:#999999;stroke-width:0.60554934" />
  <path
     inkscape:connector-curvature="0"
     d="m 554.69666,417.10126 8.58345,8.90792 11.17066,-5.0496 c 3.32212,2.04425 6.86056,3.58163 10.53186,4.59675 l -0.0118,0.0327 3.90625,11.6916 12.35641,0.23528 4.32905,-11.53626 -0.002,-0.0194 c 3.70434,-0.8812 7.31472,-2.26777 10.70096,-4.18982 l 11.0285,5.50952 8.8951,-8.58391 -5.098,-11.22448 c 2.04354,-3.32456 3.55593,-6.88043 4.56621,-10.55727 l 0.0261,0.003 11.67561,-3.90895 0.21439,-12.35756 -11.52497,-4.33396 -0.0261,-0.003 c -0.88154,-3.45209 -2.22255,-7.36674 -4.1447,-10.7646 l 5.5378,-11.07067 -8.58264,-8.91084 -11.25793,5.13206 c -3.31886,-2.04422 -6.90267,-3.54487 -10.56802,-4.55973 l -0.013,-0.0112 -3.9218,-11.68158 -13.37384,0.16919 -5.34598,11.93858 0.007,0.0186 c -2.4151,0.47341 -6.30072,1.86791 -9.69318,3.78404 l -10.51977,-5.70427 -8.64379,8.4838 5.22901,11.17559 c -2.0386,3.32391 -3.49579,6.8581 -4.5074,10.53154 l 0.0104,-0.0116 -11.65915,3.90118 -0.21356,12.36442 11.53686,4.3345 0.0229,0.003 c 0.88507,3.70264 2.30834,7.28225 4.22897,10.67614 z m 26.96966,-46.08091 c 8.18422,-7.89761 21.2265,-7.65787 29.12703,0.54331 7.90188,8.198 7.67127,21.24875 -0.51737,29.15004 -8.19053,7.90138 -21.22875,7.65875 -29.13119,-0.53905 -7.89838,-8.20396 -7.66463,-21.25333 0.52153,-29.1543 z"
     id="path5630-3-7-5-2-7"
     style="opacity:0.266;fill:#999999;stroke-width:0.60554934" />
  <path
     inkscape:connector-curvature="0"
     d="m 691.00898,418.47316 8.58344,8.90792 11.17067,-5.04959 c 3.32212,2.04425 6.86055,3.58162 10.53185,4.59674 l -0.0118,0.0327 3.90625,11.6916 12.35641,0.23528 4.32905,-11.53625 -0.002,-0.0194 c 3.70434,-0.88121 7.31473,-2.26777 10.70097,-4.18982 l 11.02849,5.50952 8.89511,-8.58392 -5.09801,-11.22447 c 2.04355,-3.32457 3.55594,-6.88043 4.56622,-10.55727 l 0.0261,0.003 11.6756,-3.90896 0.21439,-12.35756 -11.52496,-4.33396 -0.0261,-0.003 c -0.88154,-3.4521 -2.22255,-7.36674 -4.14471,-10.7646 l 5.53781,-11.07067 -8.58265,-8.91084 -11.25792,5.13205 c -3.31886,-2.04421 -6.90268,-3.54486 -10.56803,-4.55972 l -0.013,-0.0112 -3.9218,-11.68158 -13.37384,0.16919 -5.34598,11.93858 0.007,0.0186 c -2.4151,0.47341 -6.30071,1.86791 -9.69317,3.78403 l -10.51978,-5.70427 -8.64378,8.48381 5.22901,11.17559 c -2.0386,3.3239 -3.49579,6.8581 -4.5074,10.53154 l 0.0104,-0.0116 -11.65917,3.90117 -0.21356,12.36443 11.53688,4.3345 0.0229,0.003 c 0.88507,3.70265 2.30834,7.28225 4.22897,10.67615 z m 26.96965,-46.08091 c 8.18422,-7.89761 21.2265,-7.65787 29.12703,0.54331 7.90189,8.198 7.67128,21.24875 -0.51737,29.15004 -8.19053,7.90139 -21.22875,7.65875 -29.13119,-0.53905 -7.89837,-8.20396 -7.66462,-21.25334 0.52153,-29.1543 z"
     id="path5630-3-7-5-0-0-1"
     style="opacity:0.133;fill:#999999;stroke-width:0.60554934" />
  <path
     inkscape:connector-curvature="0"
     d="m 555.65795,281.575 8.58345,8.90792 11.17066,-5.04959 c 3.32212,2.04425 6.86056,3.58161 10.53186,4.59674 l -0.0118,0.0327 3.90625,11.6916 12.35641,0.23528 4.32905,-11.53626 -0.002,-0.0194 c 3.70434,-0.8812 7.31472,-2.26776 10.70096,-4.18981 l 11.0285,5.50952 8.8951,-8.58392 -5.098,-11.22448 c 2.04354,-3.32456 3.55593,-6.88042 4.56621,-10.55727 l 0.0261,0.003 11.67561,-3.90895 0.21439,-12.35756 -11.52497,-4.33396 -0.0261,-0.003 c -0.88154,-3.4521 -2.22255,-7.36674 -4.1447,-10.7646 l 5.5378,-11.07067 -8.58264,-8.91084 -11.25793,5.13205 c -3.31886,-2.04421 -6.90267,-3.54486 -10.56802,-4.55972 l -0.013,-0.0112 -3.9218,-11.68158 -13.37384,0.16919 -5.34598,11.93858 0.007,0.0186 c -2.4151,0.47341 -6.30072,1.86791 -9.69318,3.78403 l -10.51977,-5.70427 -8.64379,8.48381 5.22902,11.17559 c -2.03861,3.3239 -3.4958,6.8581 -4.50741,10.53154 l 0.0104,-0.0116 -11.65915,3.90117 -0.21356,12.36443 11.53686,4.3345 0.0229,0.003 c 0.88507,3.70264 2.30834,7.28225 4.22898,10.67615 z m 26.96966,-46.08091 c 8.18422,-7.89761 21.2265,-7.65787 29.12703,0.54331 7.90188,8.19801 7.67127,21.24876 -0.51737,29.15004 -8.19053,7.90138 -21.22875,7.65875 -29.13119,-0.53904 -7.89838,-8.20397 -7.66463,-21.25334 0.52153,-29.15431 z"
     id="path5630-3-7-5-7-6-7"
     style="opacity:0.266;fill:#999999;stroke-width:0.60554934" />
  <path
     inkscape:connector-curvature="0"
     d="m 479.03211,170.35064 4.7298,-11.43048 12.24363,0.61315 c 2.34402,-3.11785 5.0748,-5.84309 8.12027,-8.13088 l -0.023,-0.0261 -0.64153,-12.31021 11.41386,-4.73918 8.24919,9.153 0.005,0.0189 c 3.76994,-0.53499 7.6373,-0.56528 11.49195,-0.0152 l 8.24857,-9.16207 11.41872,4.73494 -0.63851,12.31143 c 3.1181,2.34656 5.82647,5.1027 8.11179,8.15511 l 0.023,-0.0127 12.29629,-0.63314 4.72013,11.42261 -9.14067,8.24962 -0.023,0.0127 c 0.44241,3.5353 0.62641,7.66919 0.0805,11.53469 l 9.20382,8.2775 -4.72799,11.43291 -12.35499,-0.65798 c -2.34101,3.11663 -5.12745,5.82429 -8.16749,8.10966 l -0.008,0.0152 0.62338,12.30657 -12.50872,4.73494 -9.34281,-9.15542 v -0.02 c -2.42088,0.4429 -6.54729,0.56649 -10.40556,0.0242 l -7.70388,9.15723 -11.1482,-4.73372 0.77832,-12.31385 c -3.11324,-2.34777 -5.76232,-5.10392 -8.04763,-8.15269 l 0.0139,0.007 -12.27813,0.63436 -4.72195,-11.42928 9.15157,-8.25447 0.02,-0.0115 c -0.53078,-3.76978 -0.51565,-7.62194 0.0303,-11.4832 z m 41.95761,33.02092 c 10.50604,4.35626 22.5566,-0.63797 26.90936,-11.16087 4.35517,-10.52044 -0.63367,-22.58225 -11.14518,-26.94032 -10.51329,-4.35747 -22.55902,0.63797 -26.9148,11.15843 -4.34972,10.5247 0.64154,22.58408 11.15062,26.94276 z"
     id="path5630-3-7-1-6"
     style="opacity:0.333;fill:#999999;stroke-width:0.60554934" />
  <path
     inkscape:connector-curvature="0"
     d="m 614.14813,168.34603 4.72979,-11.43048 12.24364,0.61315 c 2.34402,-3.11785 5.07479,-5.84309 8.12026,-8.13088 l -0.023,-0.0261 -0.64153,-12.31021 11.41387,-4.73918 8.24918,9.153 0.005,0.0189 c 3.76995,-0.53499 7.63731,-0.56528 11.49196,-0.0152 l 8.24856,-9.16207 11.41873,4.73494 -0.63851,12.31143 c 3.1181,2.34656 5.82647,5.1027 8.11178,8.15511 l 0.023,-0.0127 12.2963,-0.63314 4.72013,11.42261 -9.14067,8.24962 -0.023,0.0127 c 0.44241,3.5353 0.62641,7.66919 0.0805,11.53469 l 9.20381,8.2775 -4.72798,11.43291 -12.355,-0.65798 c -2.341,3.11663 -5.12744,5.82429 -8.16748,8.10966 l -0.008,0.0152 0.62338,12.30657 -12.50873,4.73494 -9.3428,-9.15542 v -0.02 c -2.42088,0.4429 -6.54729,0.56649 -10.40557,0.0242 l -7.70387,9.15723 -11.14821,-4.73372 0.77832,-12.31385 c -3.11324,-2.34777 -5.76231,-5.10392 -8.04762,-8.15269 l 0.0139,0.007 -12.27814,0.63436 -4.72194,-11.42928 9.15157,-8.25447 0.02,-0.0115 c -0.53078,-3.76978 -0.51565,-7.62194 0.0303,-11.4832 z m 41.9576,33.02092 c 10.50605,4.35626 22.5566,-0.63797 26.90937,-11.16087 4.35517,-10.52044 -0.63367,-22.58225 -11.14518,-26.94032 -10.51329,-4.35747 -22.55902,0.63797 -26.9148,11.15843 -4.34973,10.5247 0.64154,22.58408 11.15061,26.94276 z"
     id="path5630-3-7-6"
     style="opacity:0.2;fill:#999999;stroke-width:0.60554934" />
  <path
     inkscape:connector-curvature="0"
     d="m 554.49046,84.412758 8.58345,-8.907937 11.17066,5.049604 c 3.32212,-2.044252 6.86056,-3.581627 10.53186,-4.59675 l -0.0118,-0.0327 3.90625,-11.691623 12.35641,-0.235278 4.32905,11.536273 -0.002,0.01942 c 3.70434,0.881209 7.31472,2.267773 10.70096,4.189828 l 11.0285,-5.50953 8.8951,8.583929 -5.098,11.224496 c 2.04354,3.324568 3.55593,6.88045 4.56621,10.55729 l 0.0261,-0.003 11.67561,3.90896 0.21439,12.35758 -11.52497,4.33397 -0.0261,0.003 c -0.88154,3.4521 -2.22255,7.36675 -4.1447,10.76462 l 5.5378,11.07069 -8.58264,8.91085 -11.25793,-5.13206 c -3.31886,2.04422 -6.90267,3.54487 -10.56802,4.55973 l -0.013,0.0112 -3.9218,11.6816 -13.37384,-0.16919 -5.34598,-11.9386 0.007,-0.0186 c -2.4151,-0.47341 -6.30072,-1.86791 -9.69318,-3.78404 l -10.51977,5.70428 -8.64379,-8.48382 5.22901,-11.17561 c -2.0386,-3.32391 -3.49579,-6.85811 -4.5074,-10.53156 l 0.0104,0.0116 -11.65915,-3.90118 -0.21356,-12.36445 11.53686,-4.3345 0.0229,-0.003 c 0.88507,-3.70265 2.30834,-7.282269 4.22897,-10.676167 z m 26.96966,46.080992 c 8.18422,7.89762 21.2265,7.65788 29.12703,-0.54331 7.90188,-8.19802 7.67127,-21.24879 -0.51737,-29.15009 -8.19053,-7.901401 -21.22875,-7.658769 -29.13119,0.53905 -7.89838,8.20397 -7.66463,21.25337 0.52153,29.15435 z"
     id="path5630-3-7-5-78"
     style="opacity:0.266;fill:#999999;stroke-width:0.60554934" />
  <path
     inkscape:connector-curvature="0"
     d="m 690.80278,83.040852 8.58344,-8.907937 11.17067,5.049604 c 3.32212,-2.044252 6.86055,-3.581627 10.53185,-4.59675 l -0.0118,-0.0327 3.90625,-11.691623 12.35641,-0.235278 4.32905,11.536273 -0.002,0.01942 c 3.70434,0.881209 7.31473,2.267773 10.70097,4.189828 l 11.02849,-5.50953 8.89511,8.583929 -5.09801,11.224496 c 2.04355,3.324568 3.55594,6.880443 4.56622,10.557286 l 0.0261,-0.003 11.6756,3.90897 0.21439,12.35758 -11.52496,4.33397 -0.0261,0.003 c -0.88154,3.4521 -2.22255,7.36675 -4.14471,10.76462 l 5.53781,11.07069 -8.58265,8.91085 -11.25792,-5.13206 c -3.31886,2.04422 -6.90268,3.54487 -10.56803,4.55973 l -0.013,0.0112 -3.9218,11.6816 -13.37384,-0.16919 -5.34598,-11.9386 0.007,-0.0186 c -2.4151,-0.47341 -6.30071,-1.86791 -9.69317,-3.78404 l -10.51978,5.70428 -8.64378,-8.48382 5.22901,-11.17561 c -2.0386,-3.32391 -3.49579,-6.85811 -4.5074,-10.53156 l 0.0104,0.0116 -11.65917,-3.90118 -0.21356,-12.36445 11.53688,-4.33451 0.0229,-0.003 c 0.88507,-3.70265 2.30834,-7.282265 4.22897,-10.676163 z m 26.96965,46.080998 c 8.18422,7.89762 21.2265,7.65788 29.12703,-0.54331 7.90189,-8.19802 7.67128,-21.24879 -0.51737,-29.150098 -8.19053,-7.901399 -21.22875,-7.658767 -29.13119,0.539047 -7.89837,8.203981 -7.66462,21.253381 0.52153,29.154361 z"
     id="path5630-3-7-5-0-8"
     style="opacity:0.133;fill:#999999;stroke-width:0.60554934" />
  <path
     inkscape:connector-curvature="0"
     d="m 331.46337,331.16396 -4.72979,11.43046 -12.24363,-0.61315 c -2.34402,3.11785 -5.07479,5.84308 -8.12026,8.13087 l 0.023,0.0261 0.64153,12.31018 -11.41386,4.73918 -8.24918,-9.15299 -0.005,-0.0189 c -3.76994,0.53499 -7.6373,0.56528 -11.49195,0.0152 l -8.24856,9.16206 -11.41872,-4.73494 0.63851,-12.3114 c -3.1181,-2.34656 -5.82647,-5.10269 -8.11178,-8.1551 l -0.023,0.0127 -12.29629,0.63314 -4.72013,-11.42259 9.14067,-8.24961 0.023,-0.0127 c -0.44241,-3.53529 -0.62641,-7.66917 -0.0805,-11.53467 l -9.20382,-8.27748 4.72799,-11.43289 12.35499,0.65798 c 2.341,-3.11663 5.12744,-5.82428 8.16748,-8.10965 l 0.008,-0.0152 -0.62338,-12.30655 12.50872,-4.73493 9.3428,9.15541 v 0.02 c 2.42088,-0.4429 6.54729,-0.56649 10.40556,-0.0242 l 7.70387,-9.15722 11.1482,4.73371 -0.77832,12.31383 c 3.11324,2.34777 5.76231,5.10391 8.04762,8.15268 l -0.0139,-0.007 12.27813,-0.63436 4.72194,11.42926 -9.15156,8.25445 -0.02,0.0115 c 0.53078,3.76978 0.51565,7.62193 -0.0303,11.48318 z M 289.50579,298.1431 c -10.50604,-4.35625 -22.55659,0.63797 -26.90935,11.16085 -4.35517,10.52042 0.63367,22.58221 11.14517,26.94027 10.51329,4.35746 22.55901,-0.63797 26.91479,-11.15841 4.34972,-10.52468 -0.64154,-22.58404 -11.15061,-26.94271 z"
     id="path5630-3-7-1-5"
     style="opacity:0.333;fill:#999999;stroke-width:0.60554934" />
  <path
     inkscape:connector-curvature="0"
     d="m 196.34742,333.16857 -4.72979,11.43046 -12.24363,-0.61315 c -2.34402,3.11784 -5.07479,5.84308 -8.12026,8.13086 l 0.023,0.0261 0.64153,12.31019 -11.41386,4.73917 -8.24918,-9.15298 -0.005,-0.0189 c -3.76994,0.53499 -7.6373,0.56528 -11.49195,0.0152 l -8.24856,9.16205 -11.41872,-4.73493 0.63851,-12.31141 c -3.1181,-2.34655 -5.82647,-5.10269 -8.11178,-8.15509 l -0.023,0.0127 -12.29629,0.63314 -4.720129,-11.42259 9.140669,-8.24961 0.023,-0.0127 c -0.44241,-3.53529 -0.62641,-7.66918 -0.0805,-11.53467 l -9.203816,-8.27748 4.727986,-11.43289 12.35499,0.65797 c 2.341,-3.11662 5.12744,-5.82428 8.16748,-8.10964 l 0.008,-0.0152 -0.62338,-12.30655 12.50872,-4.73493 9.3428,9.1554 v 0.02 c 2.42088,-0.4429 6.54729,-0.56649 10.40556,-0.0242 l 7.70387,-9.15721 11.1482,4.73371 -0.77832,12.31383 c 3.11324,2.34776 5.76231,5.10391 8.04762,8.15267 l -0.0139,-0.007 12.27813,-0.63435 4.72194,11.42926 -9.15156,8.25445 -0.02,0.0115 c 0.53078,3.76977 0.51565,7.62193 -0.0303,11.48318 z M 154.38984,300.1477 c -10.50604,-4.35625 -22.55659,0.63797 -26.90935,11.16085 -4.35517,10.52043 0.63367,22.58222 11.14517,26.94028 10.51329,4.35746 22.55901,-0.63797 26.91479,-11.15841 4.34972,-10.52468 -0.64154,-22.58404 -11.15061,-26.94272 z"
     id="path5630-3-7-51"
     style="opacity:0.2;fill:#999999;stroke-width:0.60554934" />
  <path
     inkscape:connector-curvature="0"
     d="m 256.00506,417.10169 -8.58344,8.90792 -11.17066,-5.0496 c -3.32212,2.04425 -6.86055,3.58163 -10.53185,4.59675 l 0.0118,0.0327 -3.90625,11.6916 -12.3564,0.23528 -4.32905,-11.53626 0.002,-0.0194 c -3.70434,-0.8812 -7.31472,-2.26777 -10.70096,-4.18982 l -11.02849,5.50952 -8.8951,-8.58391 5.098,-11.22448 c -2.04354,-3.32456 -3.55593,-6.88043 -4.56621,-10.55727 l -0.0261,0.003 -11.6756,-3.90895 -0.21439,-12.35756 11.52496,-4.33396 0.0261,-0.003 c 0.88154,-3.45209 2.22255,-7.36674 4.1447,-10.7646 l -5.5378,-11.07067 8.58264,-8.91084 11.25792,5.13206 c 3.31886,-2.04422 6.90267,-3.54487 10.56802,-4.55973 l 0.013,-0.0112 3.9218,-11.68158 13.37383,0.16919 5.34598,11.93858 -0.007,0.0186 c 2.4151,0.47341 6.30071,1.86791 9.69317,3.78404 l 10.51977,-5.70427 8.64378,8.4838 -5.22901,11.17559 c 2.0386,3.32391 3.49579,6.8581 4.5074,10.53154 l -0.0104,-0.0116 11.65915,3.90118 0.21356,12.36442 -11.53686,4.3345 -0.0229,0.003 c -0.88507,3.70264 -2.30834,7.28225 -4.22897,10.67614 z m -26.96964,-46.08091 c -8.18422,-7.89761 -21.22649,-7.65787 -29.12702,0.54331 -7.90188,8.198 -7.67127,21.24875 0.51737,29.15004 8.19053,7.90138 21.22874,7.65875 29.13118,-0.53905 7.89837,-8.20396 7.66462,-21.25333 -0.52153,-29.1543 z"
     id="path5630-3-7-5-2"
     style="opacity:0.266;fill:#999999;stroke-width:0.60554934" />
  <path
     inkscape:connector-curvature="0"
     d="m 119.69281,418.47359 -8.58344,8.90792 -11.170663,-5.04959 c -3.322116,2.04425 -6.860546,3.58162 -10.531846,4.59674 l 0.0118,0.0327 -3.90625,11.6916 -12.3564,0.23528 -4.32905,-11.53625 0.002,-0.0194 c -3.70434,-0.88121 -7.31472,-2.26777 -10.70096,-4.18982 l -11.02849,5.50952 -8.8951,-8.58392 5.098,-11.22447 c -2.04354,-3.32457 -3.55593,-6.88043 -4.56621,-10.55727 l -0.0261,0.003 -11.6756,-3.90896 -0.21439,-12.35756 11.52496,-4.33396 0.0261,-0.003 c 0.88154,-3.4521 2.22255,-7.36674 4.1447,-10.7646 l -5.5378,-11.07067 8.58264,-8.91084 11.25792,5.13205 c 3.31886,-2.04421 6.90267,-3.54486 10.56802,-4.55972 l 0.013,-0.0112 3.9218,-11.68158 13.37383,0.16919 5.34598,11.93858 -0.007,0.0186 c 2.4151,0.47341 6.30071,1.86791 9.69317,3.78403 l 10.519769,-5.70427 8.64378,8.48381 -5.22901,11.17559 c 2.0386,3.3239 3.49579,6.8581 4.5074,10.53154 l -0.0104,-0.0116 11.65916,3.90117 0.21356,12.36443 -11.53687,4.3345 -0.0229,0.003 c -0.88507,3.70265 -2.30834,7.28225 -4.22897,10.67615 z M 92.723171,372.39268 c -8.18422,-7.89761 -21.22649,-7.65787 -29.12702,0.54331 -7.90188,8.198 -7.67127,21.24875 0.51737,29.15004 8.19053,7.90139 21.22874,7.65875 29.13118,-0.53905 7.898369,-8.20396 7.664619,-21.25334 -0.52153,-29.1543 z"
     id="path5630-3-7-5-0-0"
     style="opacity:0.133;fill:#999999;stroke-width:0.60554934" />
  <path
     inkscape:connector-curvature="0"
     d="m 255.04377,281.57543 -8.58344,8.90792 -11.17066,-5.04959 c -3.32212,2.04425 -6.86055,3.58161 -10.53185,4.59674 l 0.0118,0.0327 -3.90625,11.6916 -12.3564,0.23528 -4.32905,-11.53626 0.002,-0.0194 c -3.70434,-0.8812 -7.31472,-2.26776 -10.70096,-4.18981 l -11.02849,5.50952 -8.8951,-8.58392 5.098,-11.22448 c -2.04354,-3.32456 -3.55593,-6.88042 -4.56621,-10.55727 l -0.0261,0.003 -11.6756,-3.90895 -0.21439,-12.35756 11.52496,-4.33396 0.0261,-0.003 c 0.88154,-3.4521 2.22255,-7.36674 4.1447,-10.7646 l -5.5378,-11.07067 8.58264,-8.91084 11.25792,5.13205 c 3.31886,-2.04421 6.90267,-3.54486 10.56802,-4.55972 l 0.013,-0.0112 3.9218,-11.68158 13.37383,0.16919 5.34598,11.93858 -0.007,0.0186 c 2.4151,0.47341 6.30071,1.86791 9.69317,3.78403 l 10.51977,-5.70427 8.64378,8.48381 -5.22901,11.17559 c 2.0386,3.3239 3.49579,6.8581 4.5074,10.53154 l -0.0104,-0.0116 11.65915,3.90117 0.21356,12.36443 -11.53686,4.3345 -0.0229,0.003 c -0.88507,3.70264 -2.30834,7.28225 -4.22897,10.67615 z m -26.96964,-46.08091 c -8.18422,-7.89761 -21.22649,-7.65787 -29.12702,0.54331 -7.90188,8.19801 -7.67127,21.24876 0.51737,29.15004 8.19053,7.90138 21.22874,7.65875 29.13118,-0.53904 7.89837,-8.20397 7.66462,-21.25334 -0.52153,-29.15431 z"
     id="path5630-3-7-5-7-6"
     style="opacity:0.266;fill:#999999;stroke-width:0.60554934" />
  <path
     inkscape:connector-curvature="0"
     d="m 331.66957,170.35107 -4.72979,-11.43048 -12.24363,0.61315 c -2.34402,-3.11785 -5.07479,-5.84309 -8.12026,-8.13088 l 0.023,-0.0261 0.64153,-12.31021 -11.41386,-4.73918 -8.24918,9.153 -0.005,0.0189 c -3.76994,-0.53499 -7.6373,-0.56528 -11.49195,-0.0152 l -8.24856,-9.16207 -11.41872,4.73494 0.63851,12.31143 c -3.1181,2.34656 -5.82647,5.1027 -8.11178,8.15511 l -0.023,-0.0127 -12.29629,-0.63314 -4.72013,11.42261 9.14067,8.24962 0.023,0.0127 c -0.44241,3.5353 -0.62641,7.66919 -0.0805,11.53469 l -9.20382,8.2775 4.72799,11.43291 12.35499,-0.65798 c 2.341,3.11663 5.12744,5.82429 8.16748,8.10966 l 0.008,0.0152 -0.62338,12.30657 12.50872,4.73494 9.3428,-9.15542 v -0.02 c 2.42088,0.4429 6.54729,0.56649 10.40556,0.0242 l 7.70387,9.15723 11.1482,-4.73372 -0.77832,-12.31385 c 3.11324,-2.34777 5.76231,-5.10392 8.04762,-8.15269 l -0.0139,0.007 12.27813,0.63436 4.72194,-11.42928 -9.15156,-8.25447 -0.02,-0.0115 c 0.53078,-3.76978 0.51565,-7.62194 -0.0303,-11.4832 z m -41.95758,33.02092 c -10.50604,4.35626 -22.55659,-0.63797 -26.90935,-11.16087 -4.35517,-10.52044 0.63367,-22.58225 11.14517,-26.94032 10.51329,-4.35747 22.55901,0.63797 26.91479,11.15843 4.34972,10.5247 -0.64154,22.58408 -11.15061,26.94276 z"
     id="path5630-3-7-1"
     style="opacity:0.333;fill:#999999;stroke-width:0.60554934" />
  <path
     inkscape:connector-curvature="0"
     d="m 196.55362,168.34646 -4.72979,-11.43048 -12.24363,0.61315 c -2.34402,-3.11785 -5.07479,-5.84309 -8.12026,-8.13088 l 0.023,-0.0261 0.64153,-12.31021 -11.41386,-4.73918 -8.24918,9.153 -0.005,0.0189 c -3.76994,-0.53499 -7.6373,-0.56528 -11.49195,-0.0152 l -8.24856,-9.16207 -11.41872,4.73494 0.63851,12.31143 c -3.1181,2.34656 -5.82647,5.1027 -8.11178,8.15511 l -0.023,-0.0127 -12.29629,-0.63314 -4.720126,11.42261 9.140666,8.24962 0.023,0.0127 c -0.44241,3.5353 -0.62641,7.66919 -0.0805,11.53469 l -9.203813,8.2775 4.727983,11.43291 12.35499,-0.65798 c 2.341,3.11663 5.12744,5.82429 8.16748,8.10966 l 0.008,0.0152 -0.62338,12.30657 12.50872,4.73494 9.3428,-9.15542 v -0.02 c 2.42088,0.4429 6.54729,0.56649 10.40556,0.0242 l 7.70387,9.15723 11.1482,-4.73372 -0.77832,-12.31385 c 3.11324,-2.34777 5.76231,-5.10392 8.04762,-8.15269 l -0.0139,0.007 12.27813,0.63436 4.72194,-11.42928 -9.15156,-8.25447 -0.02,-0.0115 c 0.53078,-3.76978 0.51565,-7.62194 -0.0303,-11.4832 z m -41.95758,33.02092 c -10.50604,4.35626 -22.55659,-0.63797 -26.90935,-11.16087 -4.35517,-10.52044 0.63367,-22.58225 11.14517,-26.94032 10.51329,-4.35747 22.55901,0.63797 26.91479,11.15843 4.34972,10.5247 -0.64154,22.58408 -11.15061,26.94276 z"
     id="path5630-3-7"
     style="opacity:0.2;fill:#999999;stroke-width:0.60554934" />
  <path
     inkscape:connector-curvature="0"
     d="m 256.21126,84.41319 -8.58344,-8.907937 -11.17066,5.049604 c -3.32212,-2.044252 -6.86055,-3.581627 -10.53185,-4.59675 l 0.0118,-0.0327 -3.90625,-11.691623 -12.3564,-0.235278 -4.32905,11.536273 0.002,0.01942 c -3.70434,0.881209 -7.31472,2.267773 -10.70096,4.189828 l -11.02849,-5.50953 -8.8951,8.583929 5.098,11.224496 c -2.04354,3.324568 -3.55593,6.880448 -4.56621,10.557288 l -0.0261,-0.003 -11.6756,3.90896 -0.21439,12.35758 11.52496,4.33397 0.0261,0.003 c 0.88154,3.4521 2.22255,7.36675 4.1447,10.76462 l -5.5378,11.07069 8.58264,8.91085 11.25792,-5.13206 c 3.31886,2.04422 6.90267,3.54487 10.56802,4.55973 l 0.013,0.0112 3.9218,11.6816 13.37383,-0.16919 5.34598,-11.9386 -0.007,-0.0186 c 2.4151,-0.47341 6.30071,-1.86791 9.69317,-3.78404 l 10.51977,5.70428 8.64378,-8.48382 -5.22901,-11.17561 c 2.0386,-3.32391 3.49579,-6.85811 4.5074,-10.53156 l -0.0104,0.0116 11.65915,-3.90118 0.21356,-12.36445 -11.53686,-4.3345 -0.0229,-0.003 c -0.88507,-3.70265 -2.30834,-7.282267 -4.22897,-10.676165 z m -26.96964,46.08099 c -8.18422,7.89762 -21.22649,7.65788 -29.12702,-0.54331 -7.90188,-8.19802 -7.67127,-21.24879 0.51737,-29.15009 8.19053,-7.901399 21.22874,-7.658767 29.13118,0.53905 7.89837,8.20397 7.66462,21.25337 -0.52153,29.15435 z"
     id="path5630-3-7-5"
     style="opacity:0.266;fill:#999999;stroke-width:0.60554934" />
  <path
     inkscape:connector-curvature="0"
     d="m 119.89901,83.041284 -8.58344,-8.907937 -11.17066,5.049604 c -3.322116,-2.044252 -6.860546,-3.581627 -10.531846,-4.59675 l 0.0118,-0.0327 -3.90625,-11.691623 -12.3564,-0.235278 -4.32905,11.536273 0.002,0.01942 c -3.70434,0.881209 -7.31472,2.267773 -10.70096,4.189828 l -11.02849,-5.50953 -8.8951,8.583929 5.098,11.224496 c -2.04354,3.324568 -3.55593,6.880443 -4.56621,10.557284 l -0.0261,-0.003 -11.6756,3.90897 -0.21439,12.35758 11.52496,4.33397 0.0261,0.003 c 0.88154,3.4521 2.22255,7.36675 4.1447,10.76462 l -5.5378,11.07069 8.58264,8.91085 11.25792,-5.13206 c 3.31886,2.04422 6.90267,3.54487 10.56802,4.55973 l 0.013,0.0112 3.9218,11.6816 13.37383,-0.16919 5.34598,-11.9386 -0.007,-0.0186 c 2.4151,-0.47341 6.30071,-1.86791 9.69317,-3.78404 l 10.519766,5.70428 8.64378,-8.48382 -5.22901,-11.17561 c 2.0386,-3.32391 3.49579,-6.85811 4.5074,-10.53156 l -0.0104,0.0116 11.65916,-3.90118 0.21356,-12.36445 -11.53687,-4.33451 -0.0229,-0.003 c -0.88507,-3.70265 -2.30834,-7.282263 -4.22897,-10.676161 z M 92.929374,129.12228 c -8.18422,7.89762 -21.22649,7.65788 -29.12702,-0.54331 -7.90188,-8.19802 -7.67127,-21.24879 0.51737,-29.150096 8.19053,-7.901399 21.22874,-7.658767 29.13118,0.539047 7.898366,8.203979 7.664616,21.253379 -0.52153,29.154359 z"
     id="path5630-3-7-5-0"
     style="opacity:0.133;fill:#999999;stroke-width:0.60554934" />
  <g
     id="layer1"
     transform="translate(2709.2022,3732.4888)">
    <path
       style="fill:#000000;fill-rule:nonzero;stroke:none"
       d="m -2222.9221,-3505.4047 h -27.6039 v 45.8327 h 27.6039 c 32.5041,0 58.8534,26.3504 58.8534,58.8547 0,32.5041 -26.3493,58.8535 -58.8534,58.8535 -32.5054,0 -58.8547,-26.3494 -58.8547,-58.8535 v -27.6039 h -45.8326 v 27.6039 c 0,32.5041 -26.3515,58.8535 -58.8557,58.8535 -32.5031,0 -58.8536,-26.3494 -58.8536,-58.8535 0,-32.5043 26.3505,-58.8547 58.8536,-58.8547 h 27.605 v -45.8327 h -27.605 c -32.5031,0 -58.8536,-26.3504 -58.8536,-58.8557 0,-32.5031 26.3505,-58.8535 58.8536,-58.8535 32.5042,0 58.8557,26.3504 58.8557,58.8535 v 27.605 h 45.8326 v -27.605 c 0,-32.5031 26.3493,-58.8535 58.8547,-58.8535 32.5041,0 58.8534,26.3504 58.8534,58.8535 0,32.5053 -26.3493,58.8557 -58.8534,58.8557 z"
       id="path5064"
       inkscape:connector-curvature="0" />
    <path
       style="fill:#ffffff"
       d="m -2250.526,-3536.6554 v -27.605 c 0,-15.2456 12.3594,-27.6039 27.6039,-27.6039 15.2456,0 27.6039,12.3583 27.6039,27.6039 0,15.2456 -12.3583,27.605 -27.6039,27.605 z"
       id="path5066"
       inkscape:connector-curvature="0" />
    <path
       style="fill:#ffffff"
       d="m -2250.526,-3400.7173 c 0,15.2444 12.3594,27.6038 27.6039,27.6038 15.2456,0 27.6039,-12.3594 27.6039,-27.6038 0,-15.2446 -12.3583,-27.6039 -27.6039,-27.6039 h -27.6039 z"
       id="path5068"
       inkscape:connector-curvature="0" />
    <path
       style="fill:#ffffff"
       d="m -2358.8601,-3400.7173 v -27.6039 h -27.605 c -11.1644,0 -21.2307,6.7237 -25.5027,17.0402 -4.273,10.3134 -1.9104,22.1889 5.984,30.0823 7.8946,7.8956 19.7678,10.2581 30.0833,5.984 10.3133,-4.272 17.0404,-14.3383 17.0404,-25.5026 z"
       id="path5070"
       inkscape:connector-curvature="0" />
    <path
       style="fill:#ffffff"
       d="m -2358.8601,-3564.2604 c 0,-15.2456 -12.3594,-27.6039 -27.605,-27.6039 -15.2456,0 -27.6039,12.3583 -27.6039,27.6039 0,15.2456 12.3583,27.605 27.6039,27.605 h 27.605 z"
       id="path5072"
       inkscape:connector-curvature="0" />
    <path
       style="fill:#ffffff"
       d="m -2327.6094,-3459.572 v -45.8327 h 45.8326 v 45.8327 z"
       id="path5074"
       inkscape:connector-curvature="0" />
  </g>
  <path
     inkscape:connector-curvature="0"
     d="m 96.663867,196.37015 -14.1378,-14.69247 -18.399219,8.32866 C 58.654979,186.6346 52.826825,184.09891 46.779819,182.4246 l 0.01943,-0.054 -6.433993,-19.28383 -20.352249,-0.38807 -7.130387,19.0276 0.0033,0.032 c -6.101426,1.45344 -12.048091,3.74041 -17.625573,6.91058 l -18.165074,-9.08726 -14.651136,14.15809 8.396926,18.51335 c -3.365918,5.48345 -5.856979,11.34842 -7.521014,17.41288 l -0.043,-0.004 -19.230903,6.44731 -0.353121,20.38224 18.982784,7.14832 0.043,0.005 c 1.451985,5.6938 3.660764,12.15049 6.826742,17.75484 l -9.121322,18.25967 14.136485,14.69729 18.542941,-8.46467 c 5.466501,3.37168 11.3694,5.84681 17.406606,7.5207 l 0.02141,0.0184 6.459606,19.26728 22.02806,-0.27905 8.805374,-19.69118 -0.01151,-0.0307 c 3.977915,-0.78083 10.37791,-3.08086 15.965639,-6.24127 l 17.327137,9.40847 14.23718,-13.99298 -8.61271,-18.4327 c 3.35778,-5.48237 5.75792,-11.31158 7.42415,-17.37045 l -0.0171,0.0191 19.203803,-6.43451 0.35176,-20.39355 -19.002383,-7.1492 -0.0377,-0.004 c -1.4578,-6.10706 -3.80207,-12.01115 -6.96555,-17.60895 z m -44.421748,76.00463 c -13.480244,13.02611 -34.962191,12.63068 -47.97517,-0.89611 -13.015202,-13.52158 -12.635364,-35.04714 0.85216,-48.07929 13.490639,-13.03235 34.965899,-12.63215 47.982023,0.88907 13.009421,13.5314 12.624411,35.05468 -0.859013,48.08633 z"
     id="path5630-3-7-5-6"
     style="opacity:0.033;fill:#999999;stroke-width:0.99808812" />
  <path
     inkscape:connector-curvature="0"
     d="m 850.48407,201.85533 -14.1378,-14.69247 -18.39922,8.32866 c -5.47187,-3.37174 -11.30002,-5.90743 -17.34703,-7.58174 l 0.0194,-0.054 -6.43396,-19.28383 -20.35225,-0.38807 -7.13039,19.0276 0.003,0.032 c -6.10142,1.45344 -12.04809,3.74041 -17.62557,6.91058 l -18.16507,-9.08726 -14.65114,14.15809 8.39693,18.51335 c -3.36592,5.48345 -5.85698,11.34842 -7.52102,17.41288 l -0.043,-0.004 -19.2309,6.44731 -0.35312,20.38224 18.98278,7.14832 0.043,0.005 c 1.45199,5.6938 3.66077,12.15049 6.82675,17.75484 l -9.12133,18.25967 14.13649,14.69729 18.54294,-8.46467 c 5.4665,3.37168 11.3694,5.84681 17.40661,7.5207 l 0.0214,0.0184 6.4596,19.26728 22.02806,-0.27905 8.80538,-19.69118 -0.0115,-0.0307 c 3.97791,-0.78083 10.37791,-3.08086 15.96563,-6.24127 l 17.32714,9.40847 14.23718,-13.99298 -8.61271,-18.4327 c 3.35778,-5.48237 5.75792,-11.31158 7.42415,-17.37045 l -0.0171,0.0191 19.2038,-6.43451 0.35176,-20.39355 -19.00238,-7.1492 -0.0377,-0.004 c -1.4578,-6.10706 -3.80207,-12.01115 -6.96555,-17.60895 z m -44.42175,76.00463 c -13.48024,13.02611 -34.96219,12.63068 -47.97517,-0.89611 -13.0152,-13.52158 -12.63536,-35.04714 0.85216,-48.07929 13.49064,-13.03235 34.9659,-12.63215 47.98203,0.88907 13.00942,13.5314 12.62441,35.05468 -0.85902,48.08633 z"
     id="path5630-3-7-5-6-2"
     style="opacity:0.033;fill:#999999;stroke-width:0.99808812" />
</svg>
