<?xml version="1.0" encoding="UTF-8" standalone="no"?>
<svg
   xmlns:dc="http://purl.org/dc/elements/1.1/"
   xmlns:cc="http://creativecommons.org/ns#"
   xmlns:rdf="http://www.w3.org/1999/02/22-rdf-syntax-ns#"
   xmlns:svg="http://www.w3.org/2000/svg"
   xmlns="http://www.w3.org/2000/svg"
   xmlns:sodipodi="http://sodipodi.sourceforge.net/DTD/sodipodi-0.dtd"
   xmlns:inkscape="http://www.inkscape.org/namespaces/inkscape"
   width="809.01697"
   height="500"
   version="1.1"
   id="svg5077"
   sodipodi:docname="POIWhite8.svg"
   inkscape:version="0.92.1 r15371">
  <metadata
     id="metadata5083">
    <rdf:RDF>
      <cc:Work
         rdf:about="">
        <dc:format>image/svg+xml</dc:format>
        <dc:type
           rdf:resource="http://purl.org/dc/dcmitype/StillImage" />
        <dc:title />
      </cc:Work>
    </rdf:RDF>
  </metadata>
  <defs
     id="defs5081">
    <linearGradient
       id="linearGradient3310"
       spreadMethod="pad"
       gradientTransform="matrix(55.421875,0,0,-55.421875,425.00488,286.23437)"
       gradientUnits="userSpaceOnUse"
       y2="0"
       x2="1"
       y1="0"
       x1="0">
      <stop
         id="stop3296"
         offset="0"
         style="stop-opacity:1;stop-color:#a7a6a3" />
      <stop
         id="stop3298"
         offset="0.0337067"
         style="stop-opacity:1;stop-color:#a7a6a3" />
      <stop
         id="stop3300"
         offset="0.06487564"
         style="stop-opacity:1;stop-color:#a7a6a3" />
      <stop
         id="stop3302"
         offset="0.219101"
         style="stop-opacity:1;stop-color:#bbbcc1" />
      <stop
         id="stop3304"
         offset="0.30316223"
         style="stop-opacity:1;stop-color:#bbbcc1" />
      <stop
         id="stop3306"
         offset="0.719101"
         style="stop-opacity:1;stop-color:#70787d" />
      <stop
         id="stop3308"
         offset="1"
         style="stop-opacity:1;stop-color:#999fa4" />
    </linearGradient>
    <radialGradient
       id="radialGradient2440"
       spreadMethod="pad"
       gradientTransform="matrix(46.704147,-23.105392,-23.105392,-46.704147,745.85645,380.12207)"
       gradientUnits="userSpaceOnUse"
       r="1"
       cy="0"
       cx="0"
       fy="0"
       fx="0">
      <stop
         id="stop2426"
         offset="0"
         style="stop-opacity:1;stop-color:#cdcfd0" />
      <stop
         id="stop2428"
         offset="0.00561523"
         style="stop-opacity:1;stop-color:#cdcfd0" />
      <stop
         id="stop2430"
         offset="0.05473133"
         style="stop-opacity:1;stop-color:#cdcfd0" />
      <stop
         id="stop2432"
         offset="0.29776"
         style="stop-opacity:1;stop-color:#c6c7c8" />
      <stop
         id="stop2434"
         offset="0.657303"
         style="stop-opacity:1;stop-color:#b1b3b4" />
      <stop
         id="stop2436"
         offset="0.71491806"
         style="stop-opacity:1;stop-color:#b1b3b4" />
      <stop
         id="stop2438"
         offset="1"
         style="stop-opacity:1;stop-color:#a5a6a8" />
    </radialGradient>
    <linearGradient
       id="linearGradient3310-1"
       spreadMethod="pad"
       gradientTransform="matrix(55.421875,0,0,-55.421875,425.00488,286.23437)"
       gradientUnits="userSpaceOnUse"
       y2="0"
       x2="1"
       y1="0"
       x1="0">
      <stop
         id="stop3296-7"
         offset="0"
         style="stop-opacity:1;stop-color:#a7a6a3" />
      <stop
         id="stop3298-9"
         offset="0.0337067"
         style="stop-opacity:1;stop-color:#a7a6a3" />
      <stop
         id="stop3300-2"
         offset="0.06487564"
         style="stop-opacity:1;stop-color:#a7a6a3" />
      <stop
         id="stop3302-1"
         offset="0.219101"
         style="stop-opacity:1;stop-color:#bbbcc1" />
      <stop
         id="stop3304-9"
         offset="0.30316223"
         style="stop-opacity:1;stop-color:#bbbcc1" />
      <stop
         id="stop3306-4"
         offset="0.719101"
         style="stop-opacity:1;stop-color:#70787d" />
      <stop
         id="stop3308-7"
         offset="1"
         style="stop-opacity:1;stop-color:#999fa4" />
    </linearGradient>
  </defs>
  <sodipodi:namedview
     pagecolor="#ffffff"
     bordercolor="#666666"
     borderopacity="1"
     objecttolerance="10"
     gridtolerance="10"
     guidetolerance="10"
     inkscape:pageopacity="0"
     inkscape:pageshadow="2"
     inkscape:window-width="1360"
     inkscape:window-height="706"
     id="namedview5079"
     showgrid="false"
     inkscape:zoom="1.074"
     inkscape:cx="364.55645"
     inkscape:cy="255.6246"
     inkscape:window-x="-8"
     inkscape:window-y="-8"
     inkscape:window-maximized="1"
     inkscape:current-layer="svg5077" />
  <path
     inkscape:connector-curvature="0"
     d="m 364.29896,386.27473 8.58345,8.90792 11.17066,-5.0496 c 3.32212,2.04425 6.86056,3.58163 10.53186,4.59675 l -0.0118,0.0327 3.90625,11.69158 12.35641,0.23528 4.32905,-11.53624 -0.002,-0.0194 c 3.70434,-0.8812 7.31472,-2.26777 10.70096,-4.18982 l 11.0285,5.50952 8.8951,-8.58391 -5.098,-11.22449 c 2.04354,-3.32456 3.55593,-6.88043 4.56621,-10.55727 l 0.0261,0.003 11.67561,-3.90895 0.21439,-12.35757 -11.52497,-4.33396 -0.0261,-0.003 c -0.88154,-3.45209 -2.22255,-7.36674 -4.1447,-10.7646 l 5.5378,-11.07067 -8.58264,-8.91084 -11.25793,5.13206 c -3.31886,-2.04422 -6.90267,-3.54487 -10.56802,-4.55973 l -0.013,-0.0112 -3.9218,-11.68158 -13.37384,0.16919 -5.34598,11.93858 0.007,0.0186 c -2.4151,0.47341 -6.30072,1.86791 -9.69318,3.78404 l -10.51977,-5.70427 -8.64379,8.4838 5.22901,11.17559 c -2.0386,3.32391 -3.49579,6.8581 -4.5074,10.53154 l 0.0104,-0.0116 -11.65915,3.90118 -0.21356,12.36443 11.53686,4.3345 0.0229,0.003 c 0.88507,3.70264 2.30834,7.28225 4.22897,10.67614 z m 26.96966,-46.08093 c 8.18422,-7.89761 21.2265,-7.65787 29.12703,0.54331 7.90188,8.198 7.67127,21.24876 -0.51737,29.15005 -8.19053,7.90138 -21.22875,7.65875 -29.13119,-0.53905 -7.89838,-8.20396 -7.66463,-21.25334 0.52153,-29.15431 z"
     id="path5630-3-7-5-2-7-0-3-2-8-5-6"
     style="opacity:0.1;fill:#999999;stroke-width:0.60554934" />
  <path
     inkscape:connector-curvature="0"
     d="m 364.29897,184.80855 8.58345,8.90792 11.17066,-5.0496 c 3.32212,2.04425 6.86056,3.58163 10.53186,4.59675 l -0.0118,0.0327 3.90625,11.69158 12.35641,0.23528 4.32905,-11.53624 -0.002,-0.0194 c 3.70434,-0.8812 7.31472,-2.26777 10.70096,-4.18982 l 11.0285,5.50952 8.8951,-8.58391 -5.098,-11.22449 c 2.04354,-3.32456 3.55593,-6.88043 4.56621,-10.55727 l 0.0261,0.003 11.67561,-3.90895 0.21439,-12.35757 -11.52497,-4.33396 -0.0261,-0.003 c -0.88154,-3.45209 -2.22255,-7.36674 -4.1447,-10.7646 l 5.5378,-11.07067 -8.58264,-8.91084 -11.25793,5.13206 c -3.31886,-2.04422 -6.90267,-3.54487 -10.56802,-4.55973 l -0.013,-0.0112 -3.9218,-11.68158 -13.37384,0.16919 -5.34598,11.93858 0.007,0.0186 c -2.4151,0.47341 -6.30072,1.86791 -9.69318,3.78404 l -10.51977,-5.70427 -8.64379,8.4838 5.22901,11.17559 c -2.0386,3.32391 -3.49579,6.8581 -4.5074,10.53154 l 0.0104,-0.0116 -11.65915,3.90118 -0.21356,12.36443 11.53686,4.3345 0.0229,0.003 c 0.88507,3.70264 2.30834,7.28225 4.22897,10.67614 z m 26.96966,-46.08093 c 8.18422,-7.89761 21.2265,-7.65787 29.12703,0.54331 7.90188,8.198 7.67127,21.24876 -0.51737,29.15005 -8.19053,7.90138 -21.22875,7.65875 -29.13119,-0.53905 -7.89838,-8.20396 -7.66463,-21.25334 0.52153,-29.15431 z"
     id="path5630-3-7-5-2-7-0-3-2-8-5"
     style="opacity:0.1;fill:#999999;stroke-width:0.60554934" />
  <path
     inkscape:connector-curvature="0"
     d="m 451.20594,126.87056 8.58345,8.90792 11.17066,-5.0496 c 3.32212,2.04425 6.86056,3.58163 10.53186,4.59675 l -0.0118,0.0327 3.90625,11.69159 12.35641,0.23528 4.32905,-11.53625 -0.002,-0.0194 c 3.70434,-0.8812 7.31472,-2.26777 10.70096,-4.18982 l 11.0285,5.50952 8.8951,-8.58391 -5.098,-11.22449 c 2.04354,-3.32456 3.55593,-6.88043 4.56621,-10.55727 l 0.0261,0.003 11.67561,-3.90895 0.21439,-12.357564 -11.52497,-4.33396 -0.0261,-0.003 c -0.88154,-3.45209 -2.22255,-7.36674 -4.1447,-10.7646 l 5.5378,-11.07067 -8.58264,-8.91084 -11.25793,5.13206 c -3.31886,-2.04422 -6.90267,-3.54487 -10.56802,-4.55973 l -0.013,-0.0112 -3.9218,-11.68158 -13.37384,0.16919 -5.34598,11.93858 0.007,0.0186 c -2.4151,0.47341 -6.30072,1.86791 -9.69318,3.78404 l -10.51977,-5.70427 -8.64379,8.4838 5.22901,11.17559 c -2.0386,3.32391 -3.49579,6.8581 -4.5074,10.53154 l 0.0104,-0.0116 -11.65915,3.90118 -0.21356,12.364424 11.53686,4.3345 0.0229,0.003 c 0.88507,3.70264 2.30834,7.28225 4.22897,10.67614 z M 478.1756,80.789636 c 8.18422,-7.89761 21.2265,-7.65787 29.12703,0.54331 7.90188,8.198 7.67127,21.248754 -0.51737,29.150044 -8.19053,7.90138 -21.22875,7.65875 -29.13119,-0.53905 -7.89838,-8.20396 -7.66463,-21.253334 0.52153,-29.154304 z"
     id="path5630-3-7-5-2-7-0-3-2-8"
     style="opacity:0.2;fill:#999999;stroke-width:0.60554934" />
  <path
     inkscape:connector-curvature="0"
     d="m 277.39198,128.18732 8.58345,8.90792 11.17066,-5.0496 c 3.32212,2.04425 6.86056,3.58163 10.53186,4.59675 l -0.0118,0.0327 3.90625,11.6916 12.35641,0.23528 4.32905,-11.53626 -0.002,-0.0194 c 3.70434,-0.8812 7.31472,-2.26777 10.70096,-4.18982 l 11.0285,5.50952 8.8951,-8.58391 -5.098,-11.22448 c 2.04354,-3.32456 3.55593,-6.88043 4.56621,-10.55727 l 0.0261,0.003 11.67561,-3.90895 0.21439,-12.357563 -11.52497,-4.33396 -0.0261,-0.003 c -0.88154,-3.45209 -2.22255,-7.36674 -4.1447,-10.7646 l 5.5378,-11.07067 -8.58264,-8.91084 -11.25793,5.13206 c -3.31886,-2.04422 -6.90267,-3.54487 -10.56802,-4.55973 l -0.013,-0.0112 -3.9218,-11.68158 -13.37384,0.16919 -5.34598,11.93858 0.007,0.0186 c -2.4151,0.47341 -6.30072,1.86791 -9.69318,3.78404 l -10.51977,-5.70427 -8.64379,8.4838 5.22901,11.17559 c -2.0386,3.32391 -3.49579,6.8581 -4.5074,10.53154 l 0.0104,-0.0116 -11.65915,3.90118 -0.21356,12.364423 11.53686,4.3345 0.0229,0.003 c 0.88507,3.70264 2.30834,7.28225 4.22897,10.67614 z m 26.96966,-46.080913 c 8.18422,-7.89761 21.2265,-7.65787 29.12703,0.54331 7.90188,8.198 7.67127,21.248753 -0.51737,29.150043 -8.19053,7.90138 -21.22875,7.65875 -29.13119,-0.53905 -7.89838,-8.20396 -7.66463,-21.253333 0.52153,-29.154303 z"
     id="path5630-3-7-5-2-7-0-3-2"
     style="opacity:0.2;fill:#999999;stroke-width:0.60554934" />
  <path
     inkscape:connector-curvature="0"
     d="m 272.12489,440.26238 8.58345,8.90792 11.17066,-5.0496 c 3.32212,2.04425 6.86056,3.58163 10.53186,4.59675 l -0.0118,0.0327 3.90625,11.6916 12.35641,0.23528 4.32905,-11.53626 -0.002,-0.0194 c 3.70434,-0.8812 7.31472,-2.26777 10.70096,-4.18982 l 11.0285,5.50952 8.8951,-8.58391 -5.098,-11.22448 c 2.04354,-3.32456 3.55593,-6.88043 4.56621,-10.55727 l 0.0261,0.003 11.67561,-3.90895 0.21439,-12.35756 -11.52497,-4.33396 -0.0261,-0.003 c -0.88154,-3.45209 -2.22255,-7.36674 -4.1447,-10.7646 l 5.5378,-11.07067 -8.58264,-8.91084 -11.25793,5.13206 c -3.31886,-2.04422 -6.90267,-3.54487 -10.56802,-4.55973 l -0.013,-0.0112 -3.9218,-11.68158 -13.37384,0.16919 -5.34598,11.93858 0.007,0.0186 c -2.4151,0.47341 -6.30072,1.86791 -9.69318,3.78404 l -10.51977,-5.70427 -8.64379,8.4838 5.22901,11.17559 c -2.0386,3.32391 -3.49579,6.8581 -4.5074,10.53154 l 0.0104,-0.0116 -11.65915,3.90118 -0.21356,12.36442 11.53686,4.3345 0.0229,0.003 c 0.88507,3.70264 2.30834,7.28225 4.22897,10.67614 z m 26.96966,-46.08091 c 8.18422,-7.89761 21.2265,-7.65787 29.12703,0.54331 7.90188,8.198 7.67127,21.24875 -0.51737,29.15004 -8.19053,7.90138 -21.22875,7.65875 -29.13119,-0.53905 -7.89838,-8.20396 -7.66463,-21.25333 0.52153,-29.1543 z"
     id="path5630-3-7-5-2-7-0-3"
     style="opacity:0.2;fill:#999999;stroke-width:0.60554934" />
  <path
     inkscape:connector-curvature="0"
     d="m 455.15626,437.62883 8.58345,8.90792 11.17066,-5.0496 c 3.32212,2.04425 6.86056,3.58163 10.53186,4.59675 l -0.0118,0.0327 3.90625,11.6916 12.35641,0.23528 4.32905,-11.53626 -0.002,-0.0194 c 3.70434,-0.8812 7.31472,-2.26777 10.70096,-4.18982 l 11.0285,5.50952 8.8951,-8.58391 -5.098,-11.22448 c 2.04354,-3.32456 3.55593,-6.88043 4.56621,-10.55727 l 0.0261,0.003 11.67561,-3.90895 0.21439,-12.35756 -11.52497,-4.33396 -0.0261,-0.003 c -0.88154,-3.45209 -2.22255,-7.36674 -4.1447,-10.7646 l 5.5378,-11.07067 -8.58264,-8.91084 -11.25793,5.13206 c -3.31886,-2.04422 -6.90267,-3.54487 -10.56802,-4.55973 l -0.013,-0.0112 -3.9218,-11.68158 -13.37384,0.16919 -5.34598,11.93858 0.007,0.0186 c -2.4151,0.47341 -6.30072,1.86791 -9.69318,3.78404 l -10.51977,-5.70427 -8.64379,8.4838 5.22901,11.17559 c -2.0386,3.32391 -3.49579,6.8581 -4.5074,10.53154 l 0.0104,-0.0116 -11.65915,3.90118 -0.21356,12.36442 11.53686,4.3345 0.0229,0.003 c 0.88507,3.70264 2.30834,7.28225 4.22897,10.67614 z m 26.96966,-46.08091 c 8.18422,-7.89761 21.2265,-7.65787 29.12703,0.54331 7.90188,8.198 7.67127,21.24875 -0.51737,29.15004 -8.19053,7.90138 -21.22875,7.65875 -29.13119,-0.53905 -7.89838,-8.20396 -7.66463,-21.25333 0.52153,-29.1543 z"
     id="path5630-3-7-5-2-7-0"
     style="opacity:0.2;fill:#999999;stroke-width:0.60554934" />
  <path
     inkscape:connector-curvature="0"
     d="m 479.23831,331.16353 4.7298,11.43046 12.24363,-0.61315 c 2.34402,3.11785 5.0748,5.84308 8.12027,8.13087 l -0.023,0.0261 -0.64153,12.31018 11.41386,4.73918 8.24919,-9.15299 0.005,-0.0189 c 3.76994,0.53499 7.6373,0.56528 11.49195,0.0152 l 8.24857,9.16206 11.41872,-4.73494 -0.63851,-12.3114 c 3.1181,-2.34656 5.82647,-5.10269 8.11179,-8.1551 l 0.023,0.0127 12.29629,0.63314 4.72013,-11.42259 -9.14067,-8.24961 -0.023,-0.0127 c 0.44241,-3.53529 0.62641,-7.66917 0.0805,-11.53467 l 9.20382,-8.27748 -4.72799,-11.43289 -12.35499,0.65798 c -2.34101,-3.11663 -5.12745,-5.82428 -8.16749,-8.10965 l -0.008,-0.0152 0.62338,-12.30655 -12.50872,-4.73493 -9.34281,9.15541 v 0.02 c -2.42088,-0.4429 -6.54729,-0.56649 -10.40556,-0.0242 l -7.70388,-9.15722 -11.1482,4.73371 0.77832,12.31383 c -3.11324,2.34777 -5.76232,5.10391 -8.04763,8.15268 l 0.0139,-0.007 -12.27813,-0.63436 -4.72195,11.42926 9.15157,8.25445 0.02,0.0115 c -0.53078,3.76978 -0.51565,7.62193 0.0303,11.48318 z m 41.95761,-33.02086 c 10.50604,-4.35625 22.5566,0.63797 26.90936,11.16085 4.35517,10.52042 -0.63367,22.58221 -11.14518,26.94027 -10.51329,4.35746 -22.55902,-0.63797 -26.9148,-11.15841 -4.34972,-10.52468 0.64154,-22.58404 11.15062,-26.94271 z"
     id="path5630-3-7-1-5-6"
     style="opacity:0.5;fill:#999999;stroke-width:0.60554934" />
  <path
     inkscape:connector-curvature="0"
     d="m 614.35433,333.16814 4.72979,11.43046 12.24364,-0.61315 c 2.34402,3.11784 5.07479,5.84308 8.12026,8.13086 l -0.023,0.0261 -0.64153,12.31019 11.41387,4.73917 8.24918,-9.15298 0.005,-0.0189 c 3.76995,0.53499 7.63731,0.56528 11.49196,0.0152 l 8.24856,9.16205 11.41873,-4.73493 -0.63851,-12.31141 c 3.1181,-2.34655 5.82647,-5.10269 8.11178,-8.15509 l 0.023,0.0127 12.2963,0.63314 4.72013,-11.42259 -9.14067,-8.24961 -0.023,-0.0127 c 0.44241,-3.53529 0.62641,-7.66918 0.0805,-11.53467 l 9.20381,-8.27748 -4.72798,-11.43289 -12.355,0.65797 c -2.341,-3.11662 -5.12744,-5.82428 -8.16748,-8.10964 l -0.008,-0.0152 0.62338,-12.30655 -12.50873,-4.73493 -9.3428,9.1554 v 0.02 c -2.42088,-0.4429 -6.54729,-0.56649 -10.40557,-0.0242 l -7.70387,-9.15721 -11.14821,4.73371 0.77832,12.31383 c -3.11324,2.34776 -5.76231,5.10391 -8.04762,8.15267 l 0.0139,-0.007 -12.27814,-0.63435 -4.72194,11.42926 9.15157,8.25445 0.02,0.0115 c -0.53078,3.76977 -0.51565,7.62193 0.0303,11.48318 z m 41.9576,-33.02087 c 10.50605,-4.35625 22.5566,0.63797 26.90937,11.16085 4.35517,10.52043 -0.63367,22.58222 -11.14518,26.94028 -10.51329,4.35746 -22.55902,-0.63797 -26.9148,-11.15841 -4.34973,-10.52468 0.64154,-22.58404 11.15061,-26.94272 z"
     id="path5630-3-7-51-0"
     style="opacity:0.3;fill:#999999;stroke-width:0.60554934" />
  <path
     inkscape:connector-curvature="0"
     d="m 554.69666,417.10126 8.58345,8.90792 11.17066,-5.0496 c 3.32212,2.04425 6.86056,3.58163 10.53186,4.59675 l -0.0118,0.0327 3.90625,11.6916 12.35641,0.23528 4.32905,-11.53626 -0.002,-0.0194 c 3.70434,-0.8812 7.31472,-2.26777 10.70096,-4.18982 l 11.0285,5.50952 8.8951,-8.58391 -5.098,-11.22448 c 2.04354,-3.32456 3.55593,-6.88043 4.56621,-10.55727 l 0.0261,0.003 11.67561,-3.90895 0.21439,-12.35756 -11.52497,-4.33396 -0.0261,-0.003 c -0.88154,-3.45209 -2.22255,-7.36674 -4.1447,-10.7646 l 5.5378,-11.07067 -8.58264,-8.91084 -11.25793,5.13206 c -3.31886,-2.04422 -6.90267,-3.54487 -10.56802,-4.55973 l -0.013,-0.0112 -3.9218,-11.68158 -13.37384,0.16919 -5.34598,11.93858 0.007,0.0186 c -2.4151,0.47341 -6.30072,1.86791 -9.69318,3.78404 l -10.51977,-5.70427 -8.64379,8.4838 5.22901,11.17559 c -2.0386,3.32391 -3.49579,6.8581 -4.5074,10.53154 l 0.0104,-0.0116 -11.65915,3.90118 -0.21356,12.36442 11.53686,4.3345 0.0229,0.003 c 0.88507,3.70264 2.30834,7.28225 4.22897,10.67614 z m 26.96966,-46.08091 c 8.18422,-7.89761 21.2265,-7.65787 29.12703,0.54331 7.90188,8.198 7.67127,21.24875 -0.51737,29.15004 -8.19053,7.90138 -21.22875,7.65875 -29.13119,-0.53905 -7.89838,-8.20396 -7.66463,-21.25333 0.52153,-29.1543 z"
     id="path5630-3-7-5-2-7"
     style="opacity:0.4;fill:#999999;stroke-width:0.60554934" />
  <path
     inkscape:connector-curvature="0"
     d="m 691.00898,418.47316 8.58344,8.90792 11.17067,-5.04959 c 3.32212,2.04425 6.86055,3.58162 10.53185,4.59674 l -0.0118,0.0327 3.90625,11.6916 12.35641,0.23528 4.32905,-11.53625 -0.002,-0.0194 c 3.70434,-0.88121 7.31473,-2.26777 10.70097,-4.18982 l 11.02849,5.50952 8.89511,-8.58392 -5.09801,-11.22447 c 2.04355,-3.32457 3.55594,-6.88043 4.56622,-10.55727 l 0.0261,0.003 11.6756,-3.90896 0.21439,-12.35756 -11.52496,-4.33396 -0.0261,-0.003 c -0.88154,-3.4521 -2.22255,-7.36674 -4.14471,-10.7646 l 5.53781,-11.07067 -8.58265,-8.91084 -11.25792,5.13205 c -3.31886,-2.04421 -6.90268,-3.54486 -10.56803,-4.55972 l -0.013,-0.0112 -3.9218,-11.68158 -13.37384,0.16919 -5.34598,11.93858 0.007,0.0186 c -2.4151,0.47341 -6.30071,1.86791 -9.69317,3.78403 l -10.51978,-5.70427 -8.64378,8.48381 5.22901,11.17559 c -2.0386,3.3239 -3.49579,6.8581 -4.5074,10.53154 l 0.0104,-0.0116 -11.65917,3.90117 -0.21356,12.36443 11.53688,4.3345 0.0229,0.003 c 0.88507,3.70265 2.30834,7.28225 4.22897,10.67615 z m 26.96965,-46.08091 c 8.18422,-7.89761 21.2265,-7.65787 29.12703,0.54331 7.90189,8.198 7.67128,21.24875 -0.51737,29.15004 -8.19053,7.90139 -21.22875,7.65875 -29.13119,-0.53905 -7.89837,-8.20396 -7.66462,-21.25334 0.52153,-29.1543 z"
     id="path5630-3-7-5-0-0-1"
     style="opacity:0.2;fill:#999999;stroke-width:0.60554934" />
  <path
     inkscape:connector-curvature="0"
     d="m 555.65795,281.575 8.58345,8.90792 11.17066,-5.04959 c 3.32212,2.04425 6.86056,3.58161 10.53186,4.59674 l -0.0118,0.0327 3.90625,11.6916 12.35641,0.23528 4.32905,-11.53626 -0.002,-0.0194 c 3.70434,-0.8812 7.31472,-2.26776 10.70096,-4.18981 l 11.0285,5.50952 8.8951,-8.58392 -5.098,-11.22448 c 2.04354,-3.32456 3.55593,-6.88042 4.56621,-10.55727 l 0.0261,0.003 11.67561,-3.90895 0.21439,-12.35756 -11.52497,-4.33396 -0.0261,-0.003 c -0.88154,-3.4521 -2.22255,-7.36674 -4.1447,-10.7646 l 5.5378,-11.07067 -8.58264,-8.91084 -11.25793,5.13205 c -3.31886,-2.04421 -6.90267,-3.54486 -10.56802,-4.55972 l -0.013,-0.0112 -3.9218,-11.68158 -13.37384,0.16919 -5.34598,11.93858 0.007,0.0186 c -2.4151,0.47341 -6.30072,1.86791 -9.69318,3.78403 l -10.51977,-5.70427 -8.64379,8.48381 5.22902,11.17559 c -2.03861,3.3239 -3.4958,6.8581 -4.50741,10.53154 l 0.0104,-0.0116 -11.65915,3.90117 -0.21356,12.36443 11.53686,4.3345 0.0229,0.003 c 0.88507,3.70264 2.30834,7.28225 4.22898,10.67615 z m 26.96966,-46.08091 c 8.18422,-7.89761 21.2265,-7.65787 29.12703,0.54331 7.90188,8.19801 7.67127,21.24876 -0.51737,29.15004 -8.19053,7.90138 -21.22875,7.65875 -29.13119,-0.53904 -7.89838,-8.20397 -7.66463,-21.25334 0.52153,-29.15431 z"
     id="path5630-3-7-5-7-6-7"
     style="opacity:0.4;fill:#999999;stroke-width:0.60554934" />
  <path
     inkscape:connector-curvature="0"
     d="m 479.03211,170.35064 4.7298,-11.43048 12.24363,0.61315 c 2.34402,-3.11785 5.0748,-5.84309 8.12027,-8.13088 l -0.023,-0.0261 -0.64153,-12.31021 11.41386,-4.73918 8.24919,9.153 0.005,0.0189 c 3.76994,-0.53499 7.6373,-0.56528 11.49195,-0.0152 l 8.24857,-9.16207 11.41872,4.73494 -0.63851,12.31143 c 3.1181,2.34656 5.82647,5.1027 8.11179,8.15511 l 0.023,-0.0127 12.29629,-0.63314 4.72013,11.42261 -9.14067,8.24962 -0.023,0.0127 c 0.44241,3.5353 0.62641,7.66919 0.0805,11.53469 l 9.20382,8.2775 -4.72799,11.43291 -12.35499,-0.65798 c -2.34101,3.11663 -5.12745,5.82429 -8.16749,8.10966 l -0.008,0.0152 0.62338,12.30657 -12.50872,4.73494 -9.34281,-9.15542 v -0.02 c -2.42088,0.4429 -6.54729,0.56649 -10.40556,0.0242 l -7.70388,9.15723 -11.1482,-4.73372 0.77832,-12.31385 c -3.11324,-2.34777 -5.76232,-5.10392 -8.04763,-8.15269 l 0.0139,0.007 -12.27813,0.63436 -4.72195,-11.42928 9.15157,-8.25447 0.02,-0.0115 c -0.53078,-3.76978 -0.51565,-7.62194 0.0303,-11.4832 z m 41.95761,33.02092 c 10.50604,4.35626 22.5566,-0.63797 26.90936,-11.16087 4.35517,-10.52044 -0.63367,-22.58225 -11.14518,-26.94032 -10.51329,-4.35747 -22.55902,0.63797 -26.9148,11.15843 -4.34972,10.5247 0.64154,22.58408 11.15062,26.94276 z"
     id="path5630-3-7-1-6"
     style="opacity:0.5;fill:#999999;stroke-width:0.60554934" />
  <path
     inkscape:connector-curvature="0"
     d="m 614.14813,168.34603 4.72979,-11.43048 12.24364,0.61315 c 2.34402,-3.11785 5.07479,-5.84309 8.12026,-8.13088 l -0.023,-0.0261 -0.64153,-12.31021 11.41387,-4.73918 8.24918,9.153 0.005,0.0189 c 3.76995,-0.53499 7.63731,-0.56528 11.49196,-0.0152 l 8.24856,-9.16207 11.41873,4.73494 -0.63851,12.31143 c 3.1181,2.34656 5.82647,5.1027 8.11178,8.15511 l 0.023,-0.0127 12.2963,-0.63314 4.72013,11.42261 -9.14067,8.24962 -0.023,0.0127 c 0.44241,3.5353 0.62641,7.66919 0.0805,11.53469 l 9.20381,8.2775 -4.72798,11.43291 -12.355,-0.65798 c -2.341,3.11663 -5.12744,5.82429 -8.16748,8.10966 l -0.008,0.0152 0.62338,12.30657 -12.50873,4.73494 -9.3428,-9.15542 v -0.02 c -2.42088,0.4429 -6.54729,0.56649 -10.40557,0.0242 l -7.70387,9.15723 -11.14821,-4.73372 0.77832,-12.31385 c -3.11324,-2.34777 -5.76231,-5.10392 -8.04762,-8.15269 l 0.0139,0.007 -12.27814,0.63436 -4.72194,-11.42928 9.15157,-8.25447 0.02,-0.0115 c -0.53078,-3.76978 -0.51565,-7.62194 0.0303,-11.4832 z m 41.9576,33.02092 c 10.50605,4.35626 22.5566,-0.63797 26.90937,-11.16087 4.35517,-10.52044 -0.63367,-22.58225 -11.14518,-26.94032 -10.51329,-4.35747 -22.55902,0.63797 -26.9148,11.15843 -4.34973,10.5247 0.64154,22.58408 11.15061,26.94276 z"
     id="path5630-3-7-6"
     style="opacity:0.3;fill:#999999;stroke-width:0.60554934" />
  <path
     inkscape:connector-curvature="0"
     d="m 554.49046,84.412758 8.58345,-8.907937 11.17066,5.049604 c 3.32212,-2.044252 6.86056,-3.581627 10.53186,-4.59675 l -0.0118,-0.0327 3.90625,-11.691623 12.35641,-0.235278 4.32905,11.536273 -0.002,0.01942 c 3.70434,0.881209 7.31472,2.267773 10.70096,4.189828 l 11.0285,-5.50953 8.8951,8.583929 -5.098,11.224496 c 2.04354,3.324568 3.55593,6.88045 4.56621,10.55729 l 0.0261,-0.003 11.67561,3.90896 0.21439,12.35758 -11.52497,4.33397 -0.0261,0.003 c -0.88154,3.4521 -2.22255,7.36675 -4.1447,10.76462 l 5.5378,11.07069 -8.58264,8.91085 -11.25793,-5.13206 c -3.31886,2.04422 -6.90267,3.54487 -10.56802,4.55973 l -0.013,0.0112 -3.9218,11.6816 -13.37384,-0.16919 -5.34598,-11.9386 0.007,-0.0186 c -2.4151,-0.47341 -6.30072,-1.86791 -9.69318,-3.78404 l -10.51977,5.70428 -8.64379,-8.48382 5.22901,-11.17561 c -2.0386,-3.32391 -3.49579,-6.85811 -4.5074,-10.53156 l 0.0104,0.0116 -11.65915,-3.90118 -0.21356,-12.36445 11.53686,-4.3345 0.0229,-0.003 c 0.88507,-3.70265 2.30834,-7.282269 4.22897,-10.676167 z m 26.96966,46.080992 c 8.18422,7.89762 21.2265,7.65788 29.12703,-0.54331 7.90188,-8.19802 7.67127,-21.24879 -0.51737,-29.15009 -8.19053,-7.901401 -21.22875,-7.658769 -29.13119,0.53905 -7.89838,8.20397 -7.66463,21.25337 0.52153,29.15435 z"
     id="path5630-3-7-5-78"
     style="opacity:0.4;fill:#999999;stroke-width:0.60554934" />
  <path
     inkscape:connector-curvature="0"
     d="m 690.80278,83.040852 8.58344,-8.907937 11.17067,5.049604 c 3.32212,-2.044252 6.86055,-3.581627 10.53185,-4.59675 l -0.0118,-0.0327 3.90625,-11.691623 12.35641,-0.235278 4.32905,11.536273 -0.002,0.01942 c 3.70434,0.881209 7.31473,2.267773 10.70097,4.189828 l 11.02849,-5.50953 8.89511,8.583929 -5.09801,11.224496 c 2.04355,3.324568 3.55594,6.880443 4.56622,10.557286 l 0.0261,-0.003 11.6756,3.90897 0.21439,12.35758 -11.52496,4.33397 -0.0261,0.003 c -0.88154,3.4521 -2.22255,7.36675 -4.14471,10.76462 l 5.53781,11.07069 -8.58265,8.91085 -11.25792,-5.13206 c -3.31886,2.04422 -6.90268,3.54487 -10.56803,4.55973 l -0.013,0.0112 -3.9218,11.6816 -13.37384,-0.16919 -5.34598,-11.9386 0.007,-0.0186 c -2.4151,-0.47341 -6.30071,-1.86791 -9.69317,-3.78404 l -10.51978,5.70428 -8.64378,-8.48382 5.22901,-11.17561 c -2.0386,-3.32391 -3.49579,-6.85811 -4.5074,-10.53156 l 0.0104,0.0116 -11.65917,-3.90118 -0.21356,-12.36445 11.53688,-4.33451 0.0229,-0.003 c 0.88507,-3.70265 2.30834,-7.282265 4.22897,-10.676163 z m 26.96965,46.080998 c 8.18422,7.89762 21.2265,7.65788 29.12703,-0.54331 7.90189,-8.19802 7.67128,-21.24879 -0.51737,-29.150098 -8.19053,-7.901399 -21.22875,-7.658767 -29.13119,0.539047 -7.89837,8.203981 -7.66462,21.253381 0.52153,29.154361 z"
     id="path5630-3-7-5-0-8"
     style="opacity:0.2;fill:#999999;stroke-width:0.60554934" />
  <path
     inkscape:connector-curvature="0"
     d="m 331.46337,331.16396 -4.72979,11.43046 -12.24363,-0.61315 c -2.34402,3.11785 -5.07479,5.84308 -8.12026,8.13087 l 0.023,0.0261 0.64153,12.31018 -11.41386,4.73918 -8.24918,-9.15299 -0.005,-0.0189 c -3.76994,0.53499 -7.6373,0.56528 -11.49195,0.0152 l -8.24856,9.16206 -11.41872,-4.73494 0.63851,-12.3114 c -3.1181,-2.34656 -5.82647,-5.10269 -8.11178,-8.1551 l -0.023,0.0127 -12.29629,0.63314 -4.72013,-11.42259 9.14067,-8.24961 0.023,-0.0127 c -0.44241,-3.53529 -0.62641,-7.66917 -0.0805,-11.53467 l -9.20382,-8.27748 4.72799,-11.43289 12.35499,0.65798 c 2.341,-3.11663 5.12744,-5.82428 8.16748,-8.10965 l 0.008,-0.0152 -0.62338,-12.30655 12.50872,-4.73493 9.3428,9.15541 v 0.02 c 2.42088,-0.4429 6.54729,-0.56649 10.40556,-0.0242 l 7.70387,-9.15722 11.1482,4.73371 -0.77832,12.31383 c 3.11324,2.34777 5.76231,5.10391 8.04762,8.15268 l -0.0139,-0.007 12.27813,-0.63436 4.72194,11.42926 -9.15156,8.25445 -0.02,0.0115 c 0.53078,3.76978 0.51565,7.62193 -0.0303,11.48318 z M 289.50579,298.1431 c -10.50604,-4.35625 -22.55659,0.63797 -26.90935,11.16085 -4.35517,10.52042 0.63367,22.58221 11.14517,26.94027 10.51329,4.35746 22.55901,-0.63797 26.91479,-11.15841 4.34972,-10.52468 -0.64154,-22.58404 -11.15061,-26.94271 z"
     id="path5630-3-7-1-5"
     style="opacity:0.5;fill:#999999;stroke-width:0.60554934" />
  <path
     inkscape:connector-curvature="0"
     d="m 196.34742,333.16857 -4.72979,11.43046 -12.24363,-0.61315 c -2.34402,3.11784 -5.07479,5.84308 -8.12026,8.13086 l 0.023,0.0261 0.64153,12.31019 -11.41386,4.73917 -8.24918,-9.15298 -0.005,-0.0189 c -3.76994,0.53499 -7.6373,0.56528 -11.49195,0.0152 l -8.24856,9.16205 -11.41872,-4.73493 0.63851,-12.31141 c -3.1181,-2.34655 -5.82647,-5.10269 -8.11178,-8.15509 l -0.023,0.0127 -12.29629,0.63314 -4.720129,-11.42259 9.140669,-8.24961 0.023,-0.0127 c -0.44241,-3.53529 -0.62641,-7.66918 -0.0805,-11.53467 l -9.203816,-8.27748 4.727986,-11.43289 12.35499,0.65797 c 2.341,-3.11662 5.12744,-5.82428 8.16748,-8.10964 l 0.008,-0.0152 -0.62338,-12.30655 12.50872,-4.73493 9.3428,9.1554 v 0.02 c 2.42088,-0.4429 6.54729,-0.56649 10.40556,-0.0242 l 7.70387,-9.15721 11.1482,4.73371 -0.77832,12.31383 c 3.11324,2.34776 5.76231,5.10391 8.04762,8.15267 l -0.0139,-0.007 12.27813,-0.63435 4.72194,11.42926 -9.15156,8.25445 -0.02,0.0115 c 0.53078,3.76977 0.51565,7.62193 -0.0303,11.48318 z M 154.38984,300.1477 c -10.50604,-4.35625 -22.55659,0.63797 -26.90935,11.16085 -4.35517,10.52043 0.63367,22.58222 11.14517,26.94028 10.51329,4.35746 22.55901,-0.63797 26.91479,-11.15841 4.34972,-10.52468 -0.64154,-22.58404 -11.15061,-26.94272 z"
     id="path5630-3-7-51"
     style="opacity:0.3;fill:#999999;stroke-width:0.60554934" />
  <path
     inkscape:connector-curvature="0"
     d="m 256.00506,417.10169 -8.58344,8.90792 -11.17066,-5.0496 c -3.32212,2.04425 -6.86055,3.58163 -10.53185,4.59675 l 0.0118,0.0327 -3.90625,11.6916 -12.3564,0.23528 -4.32905,-11.53626 0.002,-0.0194 c -3.70434,-0.8812 -7.31472,-2.26777 -10.70096,-4.18982 l -11.02849,5.50952 -8.8951,-8.58391 5.098,-11.22448 c -2.04354,-3.32456 -3.55593,-6.88043 -4.56621,-10.55727 l -0.0261,0.003 -11.6756,-3.90895 -0.21439,-12.35756 11.52496,-4.33396 0.0261,-0.003 c 0.88154,-3.45209 2.22255,-7.36674 4.1447,-10.7646 l -5.5378,-11.07067 8.58264,-8.91084 11.25792,5.13206 c 3.31886,-2.04422 6.90267,-3.54487 10.56802,-4.55973 l 0.013,-0.0112 3.9218,-11.68158 13.37383,0.16919 5.34598,11.93858 -0.007,0.0186 c 2.4151,0.47341 6.30071,1.86791 9.69317,3.78404 l 10.51977,-5.70427 8.64378,8.4838 -5.22901,11.17559 c 2.0386,3.32391 3.49579,6.8581 4.5074,10.53154 l -0.0104,-0.0116 11.65915,3.90118 0.21356,12.36442 -11.53686,4.3345 -0.0229,0.003 c -0.88507,3.70264 -2.30834,7.28225 -4.22897,10.67614 z m -26.96964,-46.08091 c -8.18422,-7.89761 -21.22649,-7.65787 -29.12702,0.54331 -7.90188,8.198 -7.67127,21.24875 0.51737,29.15004 8.19053,7.90138 21.22874,7.65875 29.13118,-0.53905 7.89837,-8.20396 7.66462,-21.25333 -0.52153,-29.1543 z"
     id="path5630-3-7-5-2"
     style="opacity:0.4;fill:#999999;stroke-width:0.60554934" />
  <path
     inkscape:connector-curvature="0"
     d="m 119.69281,418.47359 -8.58344,8.90792 -11.170663,-5.04959 c -3.322116,2.04425 -6.860546,3.58162 -10.531846,4.59674 l 0.0118,0.0327 -3.90625,11.6916 -12.3564,0.23528 -4.32905,-11.53625 0.002,-0.0194 c -3.70434,-0.88121 -7.31472,-2.26777 -10.70096,-4.18982 l -11.02849,5.50952 -8.8951,-8.58392 5.098,-11.22447 c -2.04354,-3.32457 -3.55593,-6.88043 -4.56621,-10.55727 l -0.0261,0.003 -11.6756,-3.90896 -0.21439,-12.35756 11.52496,-4.33396 0.0261,-0.003 c 0.88154,-3.4521 2.22255,-7.36674 4.1447,-10.7646 l -5.5378,-11.07067 8.58264,-8.91084 11.25792,5.13205 c 3.31886,-2.04421 6.90267,-3.54486 10.56802,-4.55972 l 0.013,-0.0112 3.9218,-11.68158 13.37383,0.16919 5.34598,11.93858 -0.007,0.0186 c 2.4151,0.47341 6.30071,1.86791 9.69317,3.78403 l 10.519769,-5.70427 8.64378,8.48381 -5.22901,11.17559 c 2.0386,3.3239 3.49579,6.8581 4.5074,10.53154 l -0.0104,-0.0116 11.65916,3.90117 0.21356,12.36443 -11.53687,4.3345 -0.0229,0.003 c -0.88507,3.70265 -2.30834,7.28225 -4.22897,10.67615 z M 92.723171,372.39268 c -8.18422,-7.89761 -21.22649,-7.65787 -29.12702,0.54331 -7.90188,8.198 -7.67127,21.24875 0.51737,29.15004 8.19053,7.90139 21.22874,7.65875 29.13118,-0.53905 7.898369,-8.20396 7.664619,-21.25334 -0.52153,-29.1543 z"
     id="path5630-3-7-5-0-0"
     style="opacity:0.2;fill:#999999;stroke-width:0.60554934" />
  <path
     inkscape:connector-curvature="0"
     d="m 255.04377,281.57543 -8.58344,8.90792 -11.17066,-5.04959 c -3.32212,2.04425 -6.86055,3.58161 -10.53185,4.59674 l 0.0118,0.0327 -3.90625,11.6916 -12.3564,0.23528 -4.32905,-11.53626 0.002,-0.0194 c -3.70434,-0.8812 -7.31472,-2.26776 -10.70096,-4.18981 l -11.02849,5.50952 -8.8951,-8.58392 5.098,-11.22448 c -2.04354,-3.32456 -3.55593,-6.88042 -4.56621,-10.55727 l -0.0261,0.003 -11.6756,-3.90895 -0.21439,-12.35756 11.52496,-4.33396 0.0261,-0.003 c 0.88154,-3.4521 2.22255,-7.36674 4.1447,-10.7646 l -5.5378,-11.07067 8.58264,-8.91084 11.25792,5.13205 c 3.31886,-2.04421 6.90267,-3.54486 10.56802,-4.55972 l 0.013,-0.0112 3.9218,-11.68158 13.37383,0.16919 5.34598,11.93858 -0.007,0.0186 c 2.4151,0.47341 6.30071,1.86791 9.69317,3.78403 l 10.51977,-5.70427 8.64378,8.48381 -5.22901,11.17559 c 2.0386,3.3239 3.49579,6.8581 4.5074,10.53154 l -0.0104,-0.0116 11.65915,3.90117 0.21356,12.36443 -11.53686,4.3345 -0.0229,0.003 c -0.88507,3.70264 -2.30834,7.28225 -4.22897,10.67615 z m -26.96964,-46.08091 c -8.18422,-7.89761 -21.22649,-7.65787 -29.12702,0.54331 -7.90188,8.19801 -7.67127,21.24876 0.51737,29.15004 8.19053,7.90138 21.22874,7.65875 29.13118,-0.53904 7.89837,-8.20397 7.66462,-21.25334 -0.52153,-29.15431 z"
     id="path5630-3-7-5-7-6"
     style="opacity:0.4;fill:#999999;stroke-width:0.60554934" />
  <path
     inkscape:connector-curvature="0"
     d="m 331.66957,170.35107 -4.72979,-11.43048 -12.24363,0.61315 c -2.34402,-3.11785 -5.07479,-5.84309 -8.12026,-8.13088 l 0.023,-0.0261 0.64153,-12.31021 -11.41386,-4.73918 -8.24918,9.153 -0.005,0.0189 c -3.76994,-0.53499 -7.6373,-0.56528 -11.49195,-0.0152 l -8.24856,-9.16207 -11.41872,4.73494 0.63851,12.31143 c -3.1181,2.34656 -5.82647,5.1027 -8.11178,8.15511 l -0.023,-0.0127 -12.29629,-0.63314 -4.72013,11.42261 9.14067,8.24962 0.023,0.0127 c -0.44241,3.5353 -0.62641,7.66919 -0.0805,11.53469 l -9.20382,8.2775 4.72799,11.43291 12.35499,-0.65798 c 2.341,3.11663 5.12744,5.82429 8.16748,8.10966 l 0.008,0.0152 -0.62338,12.30657 12.50872,4.73494 9.3428,-9.15542 v -0.02 c 2.42088,0.4429 6.54729,0.56649 10.40556,0.0242 l 7.70387,9.15723 11.1482,-4.73372 -0.77832,-12.31385 c 3.11324,-2.34777 5.76231,-5.10392 8.04762,-8.15269 l -0.0139,0.007 12.27813,0.63436 4.72194,-11.42928 -9.15156,-8.25447 -0.02,-0.0115 c 0.53078,-3.76978 0.51565,-7.62194 -0.0303,-11.4832 z m -41.95758,33.02092 c -10.50604,4.35626 -22.55659,-0.63797 -26.90935,-11.16087 -4.35517,-10.52044 0.63367,-22.58225 11.14517,-26.94032 10.51329,-4.35747 22.55901,0.63797 26.91479,11.15843 4.34972,10.5247 -0.64154,22.58408 -11.15061,26.94276 z"
     id="path5630-3-7-1"
     style="opacity:0.5;fill:#999999;stroke-width:0.60554934" />
  <path
     inkscape:connector-curvature="0"
     d="m 196.55362,168.34646 -4.72979,-11.43048 -12.24363,0.61315 c -2.34402,-3.11785 -5.07479,-5.84309 -8.12026,-8.13088 l 0.023,-0.0261 0.64153,-12.31021 -11.41386,-4.73918 -8.24918,9.153 -0.005,0.0189 c -3.76994,-0.53499 -7.6373,-0.56528 -11.49195,-0.0152 l -8.24856,-9.16207 -11.41872,4.73494 0.63851,12.31143 c -3.1181,2.34656 -5.82647,5.1027 -8.11178,8.15511 l -0.023,-0.0127 -12.29629,-0.63314 -4.720126,11.42261 9.140666,8.24962 0.023,0.0127 c -0.44241,3.5353 -0.62641,7.66919 -0.0805,11.53469 l -9.203813,8.2775 4.727983,11.43291 12.35499,-0.65798 c 2.341,3.11663 5.12744,5.82429 8.16748,8.10966 l 0.008,0.0152 -0.62338,12.30657 12.50872,4.73494 9.3428,-9.15542 v -0.02 c 2.42088,0.4429 6.54729,0.56649 10.40556,0.0242 l 7.70387,9.15723 11.1482,-4.73372 -0.77832,-12.31385 c 3.11324,-2.34777 5.76231,-5.10392 8.04762,-8.15269 l -0.0139,0.007 12.27813,0.63436 4.72194,-11.42928 -9.15156,-8.25447 -0.02,-0.0115 c 0.53078,-3.76978 0.51565,-7.62194 -0.0303,-11.4832 z m -41.95758,33.02092 c -10.50604,4.35626 -22.55659,-0.63797 -26.90935,-11.16087 -4.35517,-10.52044 0.63367,-22.58225 11.14517,-26.94032 10.51329,-4.35747 22.55901,0.63797 26.91479,11.15843 4.34972,10.5247 -0.64154,22.58408 -11.15061,26.94276 z"
     id="path5630-3-7"
     style="opacity:0.3;fill:#999999;stroke-width:0.60554934" />
  <path
     inkscape:connector-curvature="0"
     d="m 256.21126,84.41319 -8.58344,-8.907937 -11.17066,5.049604 c -3.32212,-2.044252 -6.86055,-3.581627 -10.53185,-4.59675 l 0.0118,-0.0327 -3.90625,-11.691623 -12.3564,-0.235278 -4.32905,11.536273 0.002,0.01942 c -3.70434,0.881209 -7.31472,2.267773 -10.70096,4.189828 l -11.02849,-5.50953 -8.8951,8.583929 5.098,11.224496 c -2.04354,3.324568 -3.55593,6.880448 -4.56621,10.557288 l -0.0261,-0.003 -11.6756,3.90896 -0.21439,12.35758 11.52496,4.33397 0.0261,0.003 c 0.88154,3.4521 2.22255,7.36675 4.1447,10.76462 l -5.5378,11.07069 8.58264,8.91085 11.25792,-5.13206 c 3.31886,2.04422 6.90267,3.54487 10.56802,4.55973 l 0.013,0.0112 3.9218,11.6816 13.37383,-0.16919 5.34598,-11.9386 -0.007,-0.0186 c 2.4151,-0.47341 6.30071,-1.86791 9.69317,-3.78404 l 10.51977,5.70428 8.64378,-8.48382 -5.22901,-11.17561 c 2.0386,-3.32391 3.49579,-6.85811 4.5074,-10.53156 l -0.0104,0.0116 11.65915,-3.90118 0.21356,-12.36445 -11.53686,-4.3345 -0.0229,-0.003 c -0.88507,-3.70265 -2.30834,-7.282267 -4.22897,-10.676165 z m -26.96964,46.08099 c -8.18422,7.89762 -21.22649,7.65788 -29.12702,-0.54331 -7.90188,-8.19802 -7.67127,-21.24879 0.51737,-29.15009 8.19053,-7.901399 21.22874,-7.658767 29.13118,0.53905 7.89837,8.20397 7.66462,21.25337 -0.52153,29.15435 z"
     id="path5630-3-7-5"
     style="opacity:0.4;fill:#999999;stroke-width:0.60554934" />
  <path
     inkscape:connector-curvature="0"
     d="m 119.89901,83.041284 -8.58344,-8.907937 -11.17066,5.049604 c -3.322116,-2.044252 -6.860546,-3.581627 -10.531846,-4.59675 l 0.0118,-0.0327 -3.90625,-11.691623 -12.3564,-0.235278 -4.32905,11.536273 0.002,0.01942 c -3.70434,0.881209 -7.31472,2.267773 -10.70096,4.189828 l -11.02849,-5.50953 -8.8951,8.583929 5.098,11.224496 c -2.04354,3.324568 -3.55593,6.880443 -4.56621,10.557284 l -0.0261,-0.003 -11.6756,3.90897 -0.21439,12.35758 11.52496,4.33397 0.0261,0.003 c 0.88154,3.4521 2.22255,7.36675 4.1447,10.76462 l -5.5378,11.07069 8.58264,8.91085 11.25792,-5.13206 c 3.31886,2.04422 6.90267,3.54487 10.56802,4.55973 l 0.013,0.0112 3.9218,11.6816 13.37383,-0.16919 5.34598,-11.9386 -0.007,-0.0186 c 2.4151,-0.47341 6.30071,-1.86791 9.69317,-3.78404 l 10.519766,5.70428 8.64378,-8.48382 -5.22901,-11.17561 c 2.0386,-3.32391 3.49579,-6.85811 4.5074,-10.53156 l -0.0104,0.0116 11.65916,-3.90118 0.21356,-12.36445 -11.53687,-4.33451 -0.0229,-0.003 c -0.88507,-3.70265 -2.30834,-7.282263 -4.22897,-10.676161 z M 92.929374,129.12228 c -8.18422,7.89762 -21.22649,7.65788 -29.12702,-0.54331 -7.90188,-8.19802 -7.67127,-21.24879 0.51737,-29.150096 8.19053,-7.901399 21.22874,-7.658767 29.13118,0.539047 7.898366,8.203979 7.664616,21.253379 -0.52153,29.154359 z"
     id="path5630-3-7-5-0"
     style="opacity:0.2;fill:#999999;stroke-width:0.60554934" />
  <g
     id="layer1"
     transform="translate(2709.2022,3732.4888)">
    <path
       style="fill:#000000;fill-rule:nonzero;stroke:none"
       d="m -2222.9221,-3505.4047 h -27.6039 v 45.8327 h 27.6039 c 32.5041,0 58.8534,26.3504 58.8534,58.8547 0,32.5041 -26.3493,58.8535 -58.8534,58.8535 -32.5054,0 -58.8547,-26.3494 -58.8547,-58.8535 v -27.6039 h -45.8326 v 27.6039 c 0,32.5041 -26.3515,58.8535 -58.8557,58.8535 -32.5031,0 -58.8536,-26.3494 -58.8536,-58.8535 0,-32.5043 26.3505,-58.8547 58.8536,-58.8547 h 27.605 v -45.8327 h -27.605 c -32.5031,0 -58.8536,-26.3504 -58.8536,-58.8557 0,-32.5031 26.3505,-58.8535 58.8536,-58.8535 32.5042,0 58.8557,26.3504 58.8557,58.8535 v 27.605 h 45.8326 v -27.605 c 0,-32.5031 26.3493,-58.8535 58.8547,-58.8535 32.5041,0 58.8534,26.3504 58.8534,58.8535 0,32.5053 -26.3493,58.8557 -58.8534,58.8557 z"
       id="path5064"
       inkscape:connector-curvature="0" />
    <path
       style="fill:#ffffff"
       d="m -2250.526,-3536.6554 v -27.605 c 0,-15.2456 12.3594,-27.6039 27.6039,-27.6039 15.2456,0 27.6039,12.3583 27.6039,27.6039 0,15.2456 -12.3583,27.605 -27.6039,27.605 z"
       id="path5066"
       inkscape:connector-curvature="0" />
    <path
       style="fill:#ffffff"
       d="m -2250.526,-3400.7173 c 0,15.2444 12.3594,27.6038 27.6039,27.6038 15.2456,0 27.6039,-12.3594 27.6039,-27.6038 0,-15.2446 -12.3583,-27.6039 -27.6039,-27.6039 h -27.6039 z"
       id="path5068"
       inkscape:connector-curvature="0" />
    <path
       style="fill:#ffffff"
       d="m -2358.8601,-3400.7173 v -27.6039 h -27.605 c -11.1644,0 -21.2307,6.7237 -25.5027,17.0402 -4.273,10.3134 -1.9104,22.1889 5.984,30.0823 7.8946,7.8956 19.7678,10.2581 30.0833,5.984 10.3133,-4.272 17.0404,-14.3383 17.0404,-25.5026 z"
       id="path5070"
       inkscape:connector-curvature="0" />
    <path
       style="fill:#ffffff"
       d="m -2358.8601,-3564.2604 c 0,-15.2456 -12.3594,-27.6039 -27.605,-27.6039 -15.2456,0 -27.6039,12.3583 -27.6039,27.6039 0,15.2456 12.3583,27.605 27.6039,27.605 h 27.605 z"
       id="path5072"
       inkscape:connector-curvature="0" />
    <path
       style="fill:#ffffff"
       d="m -2327.6094,-3459.572 v -45.8327 h 45.8326 v 45.8327 z"
       id="path5074"
       inkscape:connector-curvature="0" />
  </g>
  <path
     inkscape:connector-curvature="0"
     d="m 96.663867,196.37015 -14.1378,-14.69247 -18.399219,8.32866 C 58.654979,186.6346 52.826825,184.09891 46.779819,182.4246 l 0.01943,-0.054 -6.433993,-19.28383 -20.352249,-0.38807 -7.130387,19.0276 0.0033,0.032 c -6.101426,1.45344 -12.048091,3.74041 -17.625573,6.91058 l -18.165074,-9.08726 -14.651136,14.15809 8.396926,18.51335 c -3.365918,5.48345 -5.856979,11.34842 -7.521014,17.41288 l -0.043,-0.004 -19.230903,6.44731 -0.353121,20.38224 18.982784,7.14832 0.043,0.005 c 1.451985,5.6938 3.660764,12.15049 6.826742,17.75484 l -9.121322,18.25967 14.136485,14.69729 18.542941,-8.46467 c 5.466501,3.37168 11.3694,5.84681 17.406606,7.5207 l 0.02141,0.0184 6.459606,19.26728 22.02806,-0.27905 8.805374,-19.69118 -0.01151,-0.0307 c 3.977915,-0.78083 10.37791,-3.08086 15.965639,-6.24127 l 17.327137,9.40847 14.23718,-13.99298 -8.61271,-18.4327 c 3.35778,-5.48237 5.75792,-11.31158 7.42415,-17.37045 l -0.0171,0.0191 19.203803,-6.43451 0.35176,-20.39355 -19.002383,-7.1492 -0.0377,-0.004 c -1.4578,-6.10706 -3.80207,-12.01115 -6.96555,-17.60895 z m -44.421748,76.00463 c -13.480244,13.02611 -34.962191,12.63068 -47.97517,-0.89611 -13.015202,-13.52158 -12.635364,-35.04714 0.85216,-48.07929 13.490639,-13.03235 34.965899,-12.63215 47.982023,0.88907 13.009421,13.5314 12.624411,35.05468 -0.859013,48.08633 z"
     id="path5630-3-7-5-6"
     style="opacity:0.1;fill:#999999;stroke-width:0.99808812" />
  <path
     inkscape:connector-curvature="0"
     d="m 850.48407,201.85533 -14.1378,-14.69247 -18.39922,8.32866 c -5.47187,-3.37174 -11.30002,-5.90743 -17.34703,-7.58174 l 0.0194,-0.054 -6.43396,-19.28383 -20.35225,-0.38807 -7.13039,19.0276 0.003,0.032 c -6.10142,1.45344 -12.04809,3.74041 -17.62557,6.91058 l -18.16507,-9.08726 -14.65114,14.15809 8.39693,18.51335 c -3.36592,5.48345 -5.85698,11.34842 -7.52102,17.41288 l -0.043,-0.004 -19.2309,6.44731 -0.35312,20.38224 18.98278,7.14832 0.043,0.005 c 1.45199,5.6938 3.66077,12.15049 6.82675,17.75484 l -9.12133,18.25967 14.13649,14.69729 18.54294,-8.46467 c 5.4665,3.37168 11.3694,5.84681 17.40661,7.5207 l 0.0214,0.0184 6.4596,19.26728 22.02806,-0.27905 8.80538,-19.69118 -0.0115,-0.0307 c 3.97791,-0.78083 10.37791,-3.08086 15.96563,-6.24127 l 17.32714,9.40847 14.23718,-13.99298 -8.61271,-18.4327 c 3.35778,-5.48237 5.75792,-11.31158 7.42415,-17.37045 l -0.0171,0.0191 19.2038,-6.43451 0.35176,-20.39355 -19.00238,-7.1492 -0.0377,-0.004 c -1.4578,-6.10706 -3.80207,-12.01115 -6.96555,-17.60895 z m -44.42175,76.00463 c -13.48024,13.02611 -34.96219,12.63068 -47.97517,-0.89611 -13.0152,-13.52158 -12.63536,-35.04714 0.85216,-48.07929 13.49064,-13.03235 34.9659,-12.63215 47.98203,0.88907 13.00942,13.5314 12.62441,35.05468 -0.85902,48.08633 z"
     id="path5630-3-7-5-6-2"
     style="opacity:0.1;fill:#999999;stroke-width:0.99808812" />
  <path
     inkscape:connector-curvature="0"
     d="m 214.13285,-56.968959 -14.1378,-14.69247 -18.39922,8.32866 c -5.47187,-3.37174 -11.30002,-5.90743 -17.34703,-7.58174 l 0.0194,-0.054 -6.43396,-19.28383 -20.35225,-0.38807 -7.13039,19.0276 0.003,0.032 c -6.10142,1.45344 -12.04809,3.74041 -17.62557,6.91058 l -18.165065,-9.08726 -14.65114,14.15809 8.39693,18.51335 c -3.36592,5.48345 -5.85698,11.34842 -7.52102,17.41288 l -0.043,-0.004 -19.2309,6.44731 -0.35312,20.3822396 18.98278,7.1483204 0.043,0.005 c 1.45199,5.6938 3.66077,12.15049 6.82675,17.75484 l -9.12133,18.25967 14.13649,14.69729 18.542935,-8.46467 c 5.4665,3.37168 11.3694,5.84681 17.40661,7.5207 l 0.0214,0.0184 6.4596,19.26728 22.02806,-0.27905 8.80538,-19.69118 -0.0115,-0.0307 c 3.97791,-0.78083 10.37791,-3.08086 15.96563,-6.24127 l 17.32714,9.40847 14.23718,-13.99298 -8.61271,-18.4327 c 3.35778,-5.48237 5.75792,-11.31158 7.42415,-17.37045 l -0.0171,0.0191 19.2038,-6.4345104 0.35176,-20.3935496 -19.00238,-7.1492 -0.0377,-0.004 c -1.4578,-6.10706 -3.80207,-12.01115 -6.96555,-17.60895 z m -44.42175,76.00463 c -13.48024,13.02611 -34.96219,12.63068 -47.97517,-0.89611 -13.0152,-13.5215804 -12.63536,-35.04714 0.85216,-48.07929 13.49064,-13.03235 34.9659,-12.63215 47.98203,0.88907 13.00942,13.5314 12.62441,35.0546796 -0.85902,48.08633 z"
     id="path5630-3-7-5-6-2-4"
     style="opacity:0.05;fill:#999999;stroke-width:0.99808812" />
  <path
     inkscape:connector-curvature="0"
     d="m 727.67411,-58.285735 -14.1378,-14.69247 -18.39922,8.32866 c -5.47187,-3.37174 -11.30002,-5.90743 -17.34703,-7.58174 l 0.0194,-0.054 -6.43396,-19.28383 -20.35225,-0.38807 -7.13039,19.0276 0.003,0.032 c -6.10142,1.45344 -12.04809,3.74041 -17.62557,6.91058 l -18.16507,-9.08726 -14.65114,14.15809 8.39693,18.51335 c -3.36592,5.48345 -5.85698,11.34842 -7.52102,17.41288 l -0.043,-0.004 -19.2309,6.44731 -0.35312,20.3822393 18.98278,7.14832 0.043,0.005 c 1.45199,5.6937997 3.66077,12.1504907 6.82675,17.7548407 l -9.12133,18.25967 14.13649,14.69729 18.54294,-8.46467 c 5.4665,3.37168 11.3694,5.84681 17.40661,7.5207 l 0.0214,0.0184 6.4596,19.26728 22.02806,-0.27905 8.80538,-19.69118 -0.0115,-0.0307 c 3.97791,-0.78083 10.37791,-3.08086 15.96563,-6.24127 l 17.32714,9.40847 14.23718,-13.99298 -8.61271,-18.4327 c 3.35778,-5.48237 5.75792,-11.31158 7.42415,-17.370451 l -0.0171,0.0191 19.2038,-6.4345096 0.35176,-20.3935494 -19.00238,-7.1492 -0.0377,-0.004 c -1.4578,-6.10706 -3.80207,-12.01115 -6.96555,-17.60895 z m -44.42175,76.00463 c -13.48024,13.02611 -34.96219,12.63068 -47.97517,-0.89611 -13.0152,-13.5215807 -12.63536,-35.04714 0.85216,-48.07929 13.49064,-13.03235 34.9659,-12.63215 47.98203,0.88907 13.00942,13.5314 12.62441,35.0546794 -0.85902,48.08633 z"
     id="path5630-3-7-5-6-2-4-8"
     style="opacity:0.05;fill:#999999;stroke-width:0.99808812" />
  <path
     inkscape:connector-curvature="0"
     d="m 214.13285,453.28034 -14.1378,-14.69247 -18.39922,8.32866 c -5.47187,-3.37174 -11.30002,-5.90743 -17.34703,-7.58174 l 0.0194,-0.054 -6.43396,-19.28383 -20.35225,-0.38807 -7.13039,19.0276 0.003,0.032 c -6.10142,1.45344 -12.04809,3.74041 -17.62557,6.91058 l -18.165069,-9.08726 -14.65114,14.15809 8.39693,18.51335 c -3.36592,5.48345 -5.85698,11.34842 -7.52102,17.41288 l -0.043,-0.004 -19.230901,6.44731 -0.35312,20.38224 18.982781,7.14833 0.043,0.005 c 1.45199,5.6938 3.66077,12.15049 6.82675,17.75484 l -9.12133,18.25967 14.13649,14.69729 18.542939,-8.46467 c 5.4665,3.37168 11.3694,5.84681 17.40661,7.5207 l 0.0214,0.0184 6.4596,19.26728 22.02806,-0.27905 8.80538,-19.69118 -0.0115,-0.0307 c 3.97791,-0.78083 10.37791,-3.08086 15.96563,-6.24127 l 17.32714,9.40847 14.23718,-13.99298 -8.61271,-18.4327 c 3.35778,-5.48237 5.75792,-11.31158 7.42415,-17.37045 l -0.0171,0.0191 19.2038,-6.43452 0.35176,-20.39355 -19.00238,-7.1492 -0.0377,-0.004 c -1.4578,-6.10706 -3.80207,-12.01115 -6.96555,-17.60895 z m -44.42175,76.00464 c -13.48024,13.02611 -34.96219,12.63068 -47.97517,-0.89611 -13.0152,-13.52159 -12.63536,-35.04715 0.85216,-48.0793 13.49064,-13.03235 34.9659,-12.63215 47.98203,0.88907 13.00942,13.5314 12.62441,35.05468 -0.85902,48.08634 z"
     id="path5630-3-7-5-6-2-4-7"
     style="opacity:0.05;fill:#999999;stroke-width:0.99808812" />
  <path
     inkscape:connector-curvature="0"
     d="m 730.30765,451.96357 -14.1378,-14.69247 -18.39922,8.32866 c -5.47187,-3.37174 -11.30002,-5.90743 -17.34703,-7.58174 l 0.0194,-0.054 -6.43396,-19.28383 -20.35225,-0.38807 -7.13039,19.0276 0.003,0.032 c -6.10142,1.45344 -12.04809,3.74041 -17.62557,6.91058 l -18.16507,-9.08726 -14.65114,14.15809 8.39693,18.51335 c -3.36592,5.48345 -5.85699,11.34842 -7.52103,17.41288 l -0.043,-0.004 -19.2309,6.44731 -0.35312,20.38224 18.98279,7.14832 0.043,0.005 c 1.45199,5.6938 3.66076,12.15049 6.82674,17.75484 l -9.12132,18.25967 14.13649,14.69729 18.54294,-8.46467 c 5.4665,3.37168 11.3694,5.84681 17.40661,7.5207 l 0.0214,0.0184 6.4596,19.26728 22.02806,-0.27905 8.80538,-19.69118 -0.0115,-0.0307 c 3.97791,-0.78083 10.37791,-3.08086 15.96563,-6.24127 l 17.32714,9.40847 14.23718,-13.99298 -8.61271,-18.4327 c 3.35778,-5.48237 5.75792,-11.31158 7.42415,-17.37045 l -0.0171,0.0191 19.2038,-6.43451 0.35176,-20.39355 -19.00238,-7.1492 -0.0377,-0.004 c -1.4578,-6.10706 -3.80207,-12.01115 -6.96555,-17.60895 z M 685.8859,527.9682 c -13.48024,13.02611 -34.96219,12.63068 -47.97517,-0.89611 -13.01521,-13.52158 -12.63536,-35.04714 0.85216,-48.07929 13.49064,-13.03235 34.9659,-12.63215 47.98203,0.88907 13.00942,13.5314 12.62441,35.05468 -0.85902,48.08633 z"
     id="path5630-3-7-5-6-2-4-8-2"
     style="opacity:0.05;fill:#999999;stroke-width:0.99808812" />
  <path
     inkscape:connector-curvature="0"
     d="m 478.80412,469.74 -14.1378,-14.69247 -18.39922,8.32866 c -5.47187,-3.37174 -11.30002,-5.90743 -17.34703,-7.58174 l 0.0194,-0.054 -6.43396,-19.28383 -20.35225,-0.38807 -7.13039,19.0276 0.003,0.032 c -6.10142,1.45344 -12.04809,3.74041 -17.62557,6.91058 l -18.16507,-9.08726 -14.65114,14.15809 8.39693,18.51335 c -3.36592,5.48345 -5.85699,11.34842 -7.52103,17.41288 l -0.043,-0.004 -19.2309,6.44731 -0.35312,20.38224 18.98279,7.14832 0.043,0.005 c 1.45199,5.6938 3.66076,12.15049 6.82674,17.75484 l -9.12132,18.25967 14.13649,14.69729 18.54294,-8.46467 c 5.4665,3.37168 11.3694,5.84681 17.40661,7.5207 l 0.0214,0.0184 6.4596,19.26728 22.02806,-0.27905 8.80538,-19.69118 -0.0115,-0.0307 c 3.97791,-0.78083 10.37791,-3.08086 15.96563,-6.24127 l 17.32714,9.40847 14.23718,-13.99298 -8.61271,-18.4327 c 3.35778,-5.48237 5.75792,-11.31158 7.42415,-17.37045 l -0.0171,0.0191 19.2038,-6.43451 0.35176,-20.39355 -19.00238,-7.1492 -0.0377,-0.004 c -1.4578,-6.10706 -3.80207,-12.01115 -6.96555,-17.60895 z m -44.42175,76.00463 c -13.48024,13.02611 -34.96219,12.63068 -47.97517,-0.89611 -13.01521,-13.52158 -12.63536,-35.04714 0.85216,-48.07929 13.49064,-13.03235 34.9659,-12.63215 47.98203,0.88907 13.00942,13.5314 12.62441,35.05468 -0.85902,48.08633 z"
     id="path5630-3-7-5-6-2-4-8-2-2"
     style="opacity:0.05;fill:#999999;stroke-width:0.99808812" />
  <path
     inkscape:connector-curvature="0"
     d="m 472.22026,-74.087001 -14.1378,-14.69247 -18.39922,8.32866 c -5.47187,-3.37174 -11.30002,-5.90743 -17.34703,-7.58174 l 0.0194,-0.054 -6.43396,-19.283829 -20.35225,-0.38807 -7.13039,19.027599 0.003,0.032 c -6.10142,1.45344 -12.04809,3.74041 -17.62557,6.91058 l -18.16507,-9.08726 -14.65114,14.15809 8.39693,18.51335 c -3.36592,5.48345 -5.85699,11.34842 -7.52103,17.41288 l -0.043,-0.004 -19.2309,6.44731 -0.35312,20.38224 18.98279,7.1483204 0.043,0.005 c 1.45199,5.6938 3.66076,12.15049 6.82674,17.7548396 l -9.12132,18.25967 14.13649,14.69729 18.54294,-8.46467 c 5.4665,3.37168 11.3694,5.84681 17.40661,7.5207 l 0.0214,0.0184 6.4596,19.26728 22.02806,-0.27905 8.80538,-19.69118 -0.0115,-0.0307 c 3.97791,-0.78083 10.37791,-3.08086 15.96563,-6.24127 l 17.32714,9.40847 14.23718,-13.99298 -8.61271,-18.4327 c 3.35778,-5.4823696 5.75792,-11.3115796 7.42415,-17.3704496 l -0.0171,0.0191 19.2038,-6.4345104 0.35176,-20.39355 -19.00238,-7.1492 -0.0377,-0.004 c -1.4578,-6.10706 -3.80207,-12.01115 -6.96555,-17.60895 z M 427.79851,1.9176294 C 414.31827,14.943739 392.83632,14.548309 379.82334,1.0215194 366.80813,-12.500061 367.18798,-34.025621 380.6755,-47.057771 c 13.49064,-13.03235 34.9659,-12.63215 47.98203,0.88907 13.00942,13.5314 12.62441,35.05468 -0.85902,48.0863304 z"
     id="path5630-3-7-5-6-2-4-8-2-2-7"
     style="opacity:0.05;fill:#999999;stroke-width:0.99808812" />
  <path
     style="fill:#000000;fill-opacity:1;stroke:#000000;stroke-width:0.25032589px;stroke-linecap:butt;stroke-linejoin:miter;stroke-opacity:1;opacity:0.8"
     d="m 353.15211,300.81813 c -0.69337,-5.95462 -1.18955,-11.88953 -10.72604,-18.72848 -7.39725,-6.65306 -5.36259,-12.58406 -5.27791,-15.66385 -0.15337,-4.03698 0.71726,-7.15232 -3.74559,-15.06793 -2.33779,-5.80659 -3.18496,-14.76018 -3.49022,-24.85783 0.5248,-8.80681 0.54239,-17.54119 2.55382,-26.5604 4.09336,-12.34486 8.23908,-24.67297 17.87674,-35.24362 8.3312,-6.76521 17.05791,-13.408 34.73196,-17.2813 5.95962,-1.54424 27.3628,-2.73491 42.39341,0.17026 9.49568,2.23259 11.53732,2.02592 25.36796,15.06793 8.76206,10.36781 18.74888,20.16405 24.34642,32.00869 2.15009,5.99324 4.64704,8.63326 5.19276,30.13587 0.53109,7.02079 0.47443,13.98974 -1.70255,20.7716 -0.72064,4.33495 -4.59956,3.44981 -5.53327,15.23819 -0.1548,6.53107 1.1379,9.97019 -0.374,14.2243 -0.47007,1.36498 -3.44427,6.94929 -7.79823,9.10119 -3.26322,0.93172 -6.52643,1.24239 -9.78964,6.98063 -1.96014,6.9179 -3.77492,13.96043 -4.17124,22.2188 -0.17204,1.67421 -0.13394,3.34842 0.59588,5.02264 0.83988,3.19512 1.32007,6.0306 -0.0851,6.98062 -9.01381,8.30963 -22.46049,27.96422 -30.47558,29.45482 -3.51136,0.23458 -5.62018,1.3263 -12.93936,-0.76617 -3.25589,-1.42426 -6.30666,-1.41272 -9.10863,0.34052 -4.56849,1.33435 -9.137,1.18609 -13.70549,0.25539 -4.62627,-0.32056 -7.62701,-3.85099 -9.95991,-4.76726 -4.75209,-2.50464 -6.54537,-6.48874 -9.19376,-10.04528 l -6.89531,-6.29959 c -2.9678,-3.20764 -6.93988,-5.39949 -6.12917,-12.42891 0.28018,-3.58508 1.59998,-5.09703 -0.42562,-13.28021 z"
     id="path22352"
     inkscape:connector-curvature="0"
     sodipodi:nodetypes="cccccccccccccccccccccccccccccc" />
  <path
     style="fill:#ffffff;fill-opacity:1;stroke:#000000;stroke-width:0.25032589;stroke-linecap:butt;stroke-linejoin:miter;stroke-miterlimit:4;stroke-dasharray:none;stroke-opacity:1;opacity:0.4"
     d="m 436.43235,295.02569 c 1.21316,-4.13164 2.75305,-6.62957 4.17103,-9.7371 1.13998,-1.846 1.87318,-3.9474 2.57071,-5.79339 0.82155,-2.76854 1.85381,-5.28035 8.78835,-0.60196 6.57728,4.06814 13.11748,7.87869 17.69706,-1.92627 4.21689,-4.14161 3.12867,-8.65334 2.64855,-13.12265 0.24077,-3.98115 0.0275,-7.58494 3.00971,-13.84501 4.12799,-7.12672 4.04855,-11.79904 4.2136,-16.614 0.0264,-6.91024 -0.10028,-14.00765 -1.08352,-22.152 -0.43987,-7.65377 -2.86177,-12.44454 -5.29706,-17.21596 -1.61088,-3.85616 -3.63198,-6.32573 -11.79807,-16.01205 -6.24299,-8.68626 -12.68542,-13.88995 -18.66017,-19.74418 -3.92106,-4.16602 -9.46688,-5.98632 -15.52279,-7.35848 -6.43563,-1.2219 -12.97499,-2.30949 -19.87135,-2.03205 -6.85319,-0.21142 -13.91971,-0.22206 -24.5592,3.13018 -10.1122,3.51783 -20.83627,4.97054 -29.25435,14.20619 -4.93555,5.16906 -9.20005,10.87503 -11.31648,18.29947 -3.96579,12.74444 -8.47412,13.49612 -8.42719,26.00453 -0.57858,5.4293 -1.59261,10.64084 -1.56505,16.37323 -0.27515,6.27013 1.14269,12.63985 2.76893,19.02183 1.96909,7.76742 5.43172,8.33187 4.69515,19.26261 -0.63484,6.14873 -0.87196,8.41974 2.91728,13.57626 4.92728,8.09471 13.22746,3.29086 16.58561,0.75031 8.86111,-6.7518 6.83776,1.85356 12.03883,12.88187 1.98007,3.8237 3.12192,8.00665 4.33398,12.15953 2.13868,3.3303 -1.31242,4.7081 3.73202,8.4274 3.38576,2.19005 3.61264,0.14088 3.98012,-1.96154 0.64962,-3.64215 1.28074,-2.20367 1.55775,-0.32591 -0.0142,1.67968 0.88904,3.78033 1.56504,4.45448 1.17594,0.8642 1.92622,1.99669 2.88931,1.80587 0.72234,0.29841 1.44469,-1.20313 2.167,-3.85252 1.0038,-3.18004 1.77937,-4.9554 1.32427,0.84274 -0.20952,2.62178 0.45482,3.93276 2.28738,3.49134 4.24196,0.61615 3.32882,-1.34533 3.49126,-2.76899 1.73416,-5.69658 1.30976,-1.8143 1.32426,0.12039 -0.19833,3.38477 1.04471,3.69452 2.52817,3.49134 4.22766,0.68271 3.79927,-0.96823 3.85971,-2.31539 0.21188,-3.03738 0.4335,-2.11275 0.50221,-0.21282 -0.25596,4.0796 1.81021,1.71977 2.86136,2.04665 2.27994,0.49452 3.10488,-0.39985 2.88931,-2.28744 -0.26611,-2.69334 0.3469,-2.18974 1.32428,-0.36117 0.14514,1.90273 0.33878,2.68073 2.64856,2.25217 3.17092,0.45096 2.41053,-0.73901 2.52814,-2.25217 0.21282,-6.0269 0.0832,-7.47678 0.84272,-1.4447 0.5452,6.57882 1.89551,3.27867 2.86136,2.81158 1.51496,-0.85173 1.90721,-1.98411 2.07456,-3.17275 0.40005,-1.75702 1.81897,-6.17962 1.20388,-0.12039 -0.073,3.06165 1.30292,2.06629 2.28738,2.16704 2.82737,0.0402 2.95973,-2.29127 3.0097,-4.69526 -0.0333,-3.35085 1.66428,-6.22963 2.76892,-9.27013 z"
     id="path22348"
     inkscape:connector-curvature="0"
     sodipodi:nodetypes="ccccccccccccccccccccccccccccccccccccccccccccccccccc" />
  <path
     style="fill:#000000;fill-opacity:1;stroke:#000000;stroke-width:0.25032589px;stroke-linecap:butt;stroke-linejoin:miter;stroke-opacity:1;opacity:0.7"
     d="m 416.23148,251.78352 15.32293,4.08623 h 7.32094 l 21.45209,-11.74788 3.40509,-11.74788 v -6.29958 l -3.06458,-3.57544 h -8.34248 l -35.58323,20.7716 z"
     id="path22327"
     inkscape:connector-curvature="0" />
  <path
     style="fill:#000000;fill-opacity:1;stroke:#000000;stroke-width:0.25033009px;stroke-linecap:butt;stroke-linejoin:miter;stroke-opacity:1;opacity:0.7"
     d="m 396.31093,251.78337 -15.32333,4.08625 h -7.32115 L 352.2138,244.12168 348.80863,232.3737 v -6.29962 l 3.06467,-3.57548 h 8.3427 l 35.58414,20.77176 z"
     id="path22327-7"
     inkscape:connector-curvature="0" />
  <path
     style="fill:#000000;fill-opacity:1;stroke:#000000;stroke-width:0.25032589px;stroke-linecap:butt;stroke-linejoin:miter;stroke-opacity:1;opacity:0.7"
     d="m 398.01422,295.45497 c -3.83248,3.98358 -8.53606,1.74911 -4.08612,-9.87502 l 7.7466,-16.51513 c 1.40182,-2.67582 4.47626,-4.23957 6.89532,-0.0851 l 7.4912,17.2813 c 2.88793,4.7582 2.43269,15.59085 -3.62522,9.52417 l -1.90807,-1.94765 c -0.85829,-0.92801 -2.76343,-1.43112 -3.83071,-0.42564 -0.87912,0.73913 -1.72789,1.55409 -3.49023,0.0851 -1.33403,-0.96659 -2.35531,-0.65006 -3.31997,0.0851 z"
     id="path22346"
     inkscape:connector-curvature="0"
     sodipodi:nodetypes="ccccccccccc" />
  <path
     style="fill:#ffffff;fill-opacity:1;stroke:#000000;stroke-width:0.25032589px;stroke-linecap:butt;stroke-linejoin:miter;stroke-opacity:1;opacity:0.4"
     d="m 354.08852,291.79441 c -0.13396,-2.07817 -3.62282,-6.15494 0.25537,-7.23602 l 2.97947,-0.76617 c 2.14741,-1.35429 3.09324,-0.16393 4.18155,1.63724 2.18936,3.21456 2.52607,5.45172 2.52373,7.66682 0.0441,2.80924 0.69549,5.32967 2.56416,7.82159 1.71628,3.52921 3.74659,7.36742 3.15915,10.71172 -0.38248,3.10221 0.86385,5.42879 2.12818,7.74678 2.40737,3.67643 5.46057,4.60207 5.53328,1.95798 0.0337,-2.26359 1.82455,-1.93326 3.49021,-1.78772 3.16246,0.18211 4.12004,1.54734 4.00098,3.49031 -0.0634,5.59905 0.64307,2.47338 1.27693,0.17026 0.70945,-3.19053 2.36819,-2.16186 3.7456,-2.38362 3.3303,-0.22559 3.55405,1.4995 3.49022,3.40517 0.33451,8.2573 1.36878,1.36661 1.44715,0.0851 0.25702,-3.94058 1.59898,-3.03136 4.25639,-3.32006 1.80085,-0.0798 3.75092,-0.42079 4.00097,2.21337 1.02827,5.63677 1.65607,1.76195 2.38358,0.25539 0.88798,-1.97562 1.52995,-2.53132 4.17124,-2.5539 2.69045,0.0101 3.68361,-0.23764 3.57533,3.91597 0.36518,7.42361 1.47559,1.9091 1.36206,0.0851 0.23524,-5.10273 2.56941,-4.56499 3.83071,-4.68212 3.91244,-0.26936 3.11398,1.29761 3.66049,3.32005 2.27001,6.51007 2.61735,2.29134 2.46868,-0.34052 0.32229,-4.67238 2.11295,-3.83831 3.66048,-3.91596 2.4472,-0.12741 2.51325,0.70267 2.89434,1.87286 1.20018,3.0823 3.0515,1.23369 4.42661,-0.17026 3.89162,-5.02502 3.86053,-8.43561 3.66048,-10.47094 -0.66664,-3.2706 0.94761,-6.61033 2.89432,-9.96016 2.26133,-4.12713 1.50946,-8.66494 4.00098,-13.02481 1.12373,-2.33531 2.44576,-4.20312 4.68201,-3.91596 l 3.14971,1.27695 c 2.51065,0.53461 1.90361,2.10851 1.10667,3.74569 -1.00691,3.20654 -2.08718,6.41309 -2.55383,9.61964 -1.00509,4.7191 -1.14938,9.43723 -1.44716,10.64119 -0.63403,2.67196 -1.14744,5.28761 -0.59589,7.40627 0.28325,1.22889 1.02865,3.8303 0.9364,5.10777 -0.0279,1.9931 -0.99776,3.88909 -2.12818,5.1929 -4.65364,4.65376 -9.16028,9.60145 -13.96088,13.96124 -1.78413,1.74163 -3.5044,3.80248 -5.27791,5.95907 -3.85858,4.12023 -7.35122,5.79638 -11.96039,6.00164 -3.66344,0.0663 -6.27427,-0.65995 -9.1512,-1.66003 -4.28916,-1.72002 -6.20791,-0.37234 -8.68298,0.25538 -5.0056,2.49609 -11.59632,1.36732 -14.47164,-0.0851 -0.95323,-0.47214 -7.1991,-3.63052 -9.87477,-6.46984 -2.16332,-1.81063 -5.47777,-7.23231 -9.10863,-9.61964 -3.26484,-2.98425 -10.2323,-8.8476 -9.53426,-13.5356 0.65844,-2.46499 1.23113,-4.74617 1.10664,-5.53342 0.33322,-4.16129 -1.11388,-7.25436 -1.78765,-10.81144 -1.14259,-3.06809 -2.39653,-11.48355 -2.4687,-13.28021 z"
     id="path22350"
     inkscape:connector-curvature="0"
     sodipodi:nodetypes="cccccccccccccccccccccccccccccccccccccccccccccccccc" />
</svg>
