<?xml version="1.0" encoding="UTF-8" standalone="no"?>
<!-- Created with Inkscape (http://www.inkscape.org/) -->

<svg
   xmlns:dc="http://purl.org/dc/elements/1.1/"
   xmlns:cc="http://creativecommons.org/ns#"
   xmlns:rdf="http://www.w3.org/1999/02/22-rdf-syntax-ns#"
   xmlns:svg="http://www.w3.org/2000/svg"
   xmlns="http://www.w3.org/2000/svg"
   xmlns:sodipodi="http://sodipodi.sourceforge.net/DTD/sodipodi-0.dtd"
   xmlns:inkscape="http://www.inkscape.org/namespaces/inkscape"
   width="350mm"
   height="350mm"
   viewBox="0 0 350 350"
   version="1.1"
   id="svg8"
   inkscape:version="0.92.1 r15371"
   sodipodi:docname="repeat_no_scheduled.svg">
  <defs
     id="defs2" />
  <sodipodi:namedview
     id="base"
     pagecolor="#ffffff"
     bordercolor="#666666"
     borderopacity="1.0"
     inkscape:pageopacity="0.0"
     inkscape:pageshadow="2"
     inkscape:zoom="0.24748737"
     inkscape:cx="167.15188"
     inkscape:cy="914.08499"
     inkscape:document-units="mm"
     inkscape:current-layer="g5551"
     showgrid="false"
     showguides="false"
     inkscape:window-width="1360"
     inkscape:window-height="706"
     inkscape:window-x="-8"
     inkscape:window-y="-8"
     inkscape:window-maximized="1" />
  <metadata
     id="metadata5">
    <rdf:RDF>
      <cc:Work
         rdf:about="">
        <dc:format>image/svg+xml</dc:format>
        <dc:type
           rdf:resource="http://purl.org/dc/dcmitype/StillImage" />
        <dc:title></dc:title>
      </cc:Work>
    </rdf:RDF>
  </metadata>
  <g
     inkscape:label="Layer 1"
     inkscape:groupmode="layer"
     id="layer1"
     transform="translate(0,53)">
    <g
       id="g5551">
      <g
         id="g4521"
         transform="translate(-75.01102,75)">
        <path
           style="fill:#ffffff;fill-opacity:1;stroke:none;stroke-width:0.26458332px;stroke-linecap:butt;stroke-linejoin:miter;stroke-opacity:1"
           d="m 296,-103.625 35.25,-22.031 v 22.031 H 375 c 10.62499,0 25.62499,15.000003 25.625,25.625004 V 172.625 c -10e-6,9.99999 -15.62501,24.99999 -25.625,25 H 205.765 l -35.25,22.031 v -22.031 h -46.14 c -10,-1e-5 -24.97798,-15.00001 -24.96395,-25 L 99.749434,-77.999996 C 99.764383,-88.624997 114.786,-103.625 124.375,-103.625 Z"
           id="path5416"
           inkscape:connector-curvature="0"
           sodipodi:nodetypes="ccccccccccccccc" />
        <path
           sodipodi:nodetypes="ccccccccccccccccc"
           inkscape:connector-curvature="0"
           id="path4544-32"
           d="M 220,187.625 245,172 220,156.375 h 129.375 c 5,0 10,-5 10,-10 V -52.374996 c 0,-5 -5,-9.99999 -10,-10 H 325 v 21.875 l -60,-37.5 L 325,-115.5 v 21.875004 h 45.625 c 10,-1e-5 20,10 20,20 V 167.625 c 0,10 -10,20 -20,20 z"
           style="fill:#000000;fill-opacity:1;stroke:none;stroke-width:0.26458332px;stroke-linecap:butt;stroke-linejoin:miter;stroke-opacity:1" />
        <path
           style="fill:none;stroke:none;stroke-width:0.26458332px;stroke-linecap:butt;stroke-linejoin:miter;stroke-opacity:1"
           d="m 380.625,187.625 10,-10"
           id="path5279-7"
           inkscape:connector-curvature="0" />
        <path
           style="fill:none;stroke:none;stroke-width:0.26458332px;stroke-linecap:butt;stroke-linejoin:miter;stroke-opacity:1"
           d="m 390.625,-83.624996 -10,-10.00001"
           id="path5281-8"
           inkscape:connector-curvature="0" />
        <path
           style="fill:none;stroke:none;stroke-width:0.26458332px;stroke-linecap:butt;stroke-linejoin:miter;stroke-opacity:1"
           d="m 354.375,-62.374986 5,4.99999"
           id="path5283-1"
           inkscape:connector-curvature="0" />
        <path
           style="fill:none;stroke:none;stroke-width:0.26458332px;stroke-linecap:butt;stroke-linejoin:miter;stroke-opacity:1"
           d="m 359.375,151.375 -5,5"
           id="path5285-1"
           inkscape:connector-curvature="0" />
        <path
           style="fill:#000000;fill-opacity:1;stroke:none;stroke-width:0.26458332px;stroke-linecap:butt;stroke-linejoin:miter;stroke-opacity:1"
           d="m 280,-93.624996 -25,15.625 25,15.625 H 150.625 c -5,-10e-7 -10,4.999999 -10,10 V 146.375 c 0,5 5,9.99999 10,10 H 175 V 134.5 l 60,37.5 -60,37.5 v -21.875 h -45.625 c -10,1e-5 -20,-10 -20,-20 V -73.624996 c 0,-10.000001 10,-20.000002 20,-20 z"
           id="path4544"
           inkscape:connector-curvature="0"
           sodipodi:nodetypes="ccccccccccccccccc" />
        <path
           inkscape:connector-curvature="0"
           id="path5279"
           d="m 119.375,-93.624998 -10,10.000001"
           style="fill:none;stroke:none;stroke-width:0.26458332px;stroke-linecap:butt;stroke-linejoin:miter;stroke-opacity:1" />
        <path
           inkscape:connector-curvature="0"
           id="path5281"
           d="m 109.375,177.625 10,10.00001"
           style="fill:none;stroke:none;stroke-width:0.26458332px;stroke-linecap:butt;stroke-linejoin:miter;stroke-opacity:1" />
        <path
           inkscape:connector-curvature="0"
           id="path5283"
           d="m 145.625,156.37499 -5,-4.99999"
           style="fill:none;stroke:none;stroke-width:0.26458332px;stroke-linecap:butt;stroke-linejoin:miter;stroke-opacity:1" />
        <path
           inkscape:connector-curvature="0"
           id="path5285"
           d="m 140.625,-57.374997 5,-5"
           style="fill:none;stroke:none;stroke-width:0.26458332px;stroke-linecap:butt;stroke-linejoin:miter;stroke-opacity:1" />
        <path
           style="fill:none;stroke:none;stroke-width:0.26458332px;stroke-linecap:butt;stroke-linejoin:miter;stroke-opacity:1"
           d="m 114.375,197.62499 -14.97798,-15"
           id="path5480"
           inkscape:connector-curvature="0" />
        <path
           style="fill:none;stroke:none;stroke-width:0.26458332px;stroke-linecap:butt;stroke-linejoin:miter;stroke-opacity:1"
           d="M 99.764383,-88.624997 114.786,-103.625"
           id="path5482"
           inkscape:connector-curvature="0" />
        <path
           style="fill:none;stroke:none;stroke-width:0.26458332px;stroke-linecap:butt;stroke-linejoin:miter;stroke-opacity:1"
           d="m 385.62499,-103.625 15,15.000003"
           id="path5484"
           inkscape:connector-curvature="0" />
        <path
           style="fill:none;stroke:none;stroke-width:0.26458332px;stroke-linecap:butt;stroke-linejoin:miter;stroke-opacity:1"
           d="m 384.99999,197.62499 15.625,-15"
           id="path5486"
           inkscape:connector-curvature="0" />
        <path
           inkscape:connector-curvature="0"
           id="path4516"
           d="m 346.14,146.37498 4.99989,-4.99999"
           style="fill:none;stroke:none;stroke-width:0.26458332px;stroke-linecap:butt;stroke-linejoin:miter;stroke-opacity:1" />
        <path
           inkscape:connector-curvature="0"
           id="path4518"
           d="m 150.625,141.37499 5,4.99999"
           style="fill:none;stroke:none;stroke-width:0.26458332px;stroke-linecap:butt;stroke-linejoin:miter;stroke-opacity:1" />
        <path
           inkscape:connector-curvature="0"
           id="path4520"
           d="m 150.625,-47.375001 5,-4.999998"
           style="fill:none;stroke:none;stroke-width:0.26458332px;stroke-linecap:butt;stroke-linejoin:miter;stroke-opacity:1" />
        <path
           inkscape:connector-curvature="0"
           id="path4522"
           d="m 346.14,-52.374999 4.99999,4.999998"
           style="fill:none;stroke:none;stroke-width:0.26458332px;stroke-linecap:butt;stroke-linejoin:miter;stroke-opacity:1" />
      </g>
    </g>
  </g>
</svg>
