<?xml version="1.0" encoding="UTF-8" standalone="no"?>
<!-- Created with Inkscape (http://www.inkscape.org/) -->

<svg
   xmlns:dc="http://purl.org/dc/elements/1.1/"
   xmlns:cc="http://creativecommons.org/ns#"
   xmlns:rdf="http://www.w3.org/1999/02/22-rdf-syntax-ns#"
   xmlns:svg="http://www.w3.org/2000/svg"
   xmlns="http://www.w3.org/2000/svg"
   xmlns:sodipodi="http://sodipodi.sourceforge.net/DTD/sodipodi-0.dtd"
   xmlns:inkscape="http://www.inkscape.org/namespaces/inkscape"
   version="1.1"
   id="svg21774"
   width="680"
   height="908"
   viewBox="0 0 680 908"
   sodipodi:docname="skull.svg"
   inkscape:version="0.92.1 r15371">
  <metadata
     id="metadata21780">
    <rdf:RDF>
      <cc:Work
         rdf:about="">
        <dc:format>image/svg+xml</dc:format>
        <dc:type
           rdf:resource="http://purl.org/dc/dcmitype/StillImage" />
        <dc:title></dc:title>
      </cc:Work>
    </rdf:RDF>
  </metadata>
  <defs
     id="defs21778" />
  <sodipodi:namedview
     pagecolor="#ffffff"
     bordercolor="#666666"
     borderopacity="1"
     objecttolerance="10"
     gridtolerance="10"
     guidetolerance="10"
     inkscape:pageopacity="0"
     inkscape:pageshadow="2"
     inkscape:window-width="1360"
     inkscape:window-height="706"
     id="namedview21776"
     showgrid="false"
     inkscape:zoom="0.51982379"
     inkscape:cx="645.76794"
     inkscape:cy="490.41238"
     inkscape:window-x="-8"
     inkscape:window-y="-8"
     inkscape:window-maximized="1"
     inkscape:current-layer="svg21774" />
  <path
     style="fill:#000000;fill-opacity:1;stroke:#000000;stroke-width:1px;stroke-linecap:butt;stroke-linejoin:miter;stroke-opacity:1"
     d="m 130.92711,651.23682 c -2.7699,-23.78719 -4.75209,-47.49561 -42.848869,-74.81549 -29.55083,-26.5772 -21.42272,-50.27001 -21.08437,-62.57296 -0.61279,-16.12673 2.86528,-28.5717 -14.9631,-60.19246 -9.33915,-23.19587 -12.72343,-58.96313 -13.94288,-99.30057 2.09644,-35.181 2.16674,-70.07255 10.20211,-106.10197 16.35232,-49.31455 32.91387,-98.56215 71.414789,-140.78915 33.28182,-27.025265 68.14369,-53.561467 138.74873,-69.034303 23.80778,-6.168898 109.31012,-10.925234 169.35507,0.680141 37.93373,8.918649 46.0898,8.093008 101.34099,60.192465 35.00312,41.416727 74.89892,80.550207 97.26014,127.866487 8.58927,23.94143 18.56426,34.48757 20.74429,120.38493 2.12158,28.0463 1.89523,55.88543 -6.8014,82.97718 -2.87886,17.31704 -18.37454,13.78106 -22.10458,60.8726 -0.61836,26.08998 4.54574,39.82835 -1.49407,56.82241 -1.87788,5.45274 -13.75932,27.76064 -31.15269,36.35689 -13.03603,3.72201 -26.07207,4.96301 -39.1081,27.88578 -7.83046,27.63529 -15.08024,55.76831 -16.66345,88.75838 -0.68731,6.68805 -0.53509,13.3761 2.38049,20.06415 3.35511,12.76373 5.27343,24.09066 -0.34007,27.88578 -36.00877,33.19484 -89.72618,111.70979 -121.74521,117.66436 -14.02733,0.93712 -22.45174,5.29825 -51.6907,-3.06063 -13.00675,-5.68953 -25.19412,-5.64346 -36.38754,1.36028 -18.25045,5.33039 -36.50089,4.73812 -54.75134,1.02021 -18.4812,-1.28052 -30.46866,-15.38375 -39.78824,-19.04394 -18.98387,-10.00543 -26.14773,-25.92088 -36.7276,-40.12831 L 163.2338,781.82387 c -11.8559,-12.81369 -27.72375,-21.56961 -24.48507,-49.65029 1.11927,-14.32151 6.39162,-20.36132 -1.70035,-53.05098 z"
     id="path22352"
     inkscape:connector-curvature="0"
     sodipodi:nodetypes="cccccccccccccccccccccccccccccc" />
  <path
     style="fill:#ffffff;fill-opacity:1;stroke:#000000;stroke-width:1;stroke-linecap:butt;stroke-linejoin:miter;stroke-miterlimit:4;stroke-dasharray:none;stroke-opacity:1"
     d="m 463.61864,628.09746 c 4.84638,-16.50478 10.99802,-26.48333 16.66259,-38.89716 4.55407,-7.37429 7.48309,-15.7688 10.26962,-23.14309 3.28191,-11.05959 7.40566,-21.09366 35.10805,-2.40466 26.2752,16.25117 52.40223,31.47335 70.69703,-7.69492 16.84578,-16.54464 12.49855,-34.56786 10.58051,-52.42161 0.96188,-15.9037 0.11025,-30.29986 12.02331,-55.3072 16.49067,-28.46943 16.17335,-47.1342 16.83262,-66.36865 0.10561,-27.60468 -0.40045,-55.95695 -4.32839,-88.49152 -1.75724,-30.57483 -11.43237,-49.71273 -21.16101,-68.77331 C 603.8678,209.191 595.79384,199.3257 563.17161,160.63136 538.2318,125.93201 512.4953,105.14457 488.62712,81.758473 472.9631,65.116311 450.80843,57.844662 426.61604,52.363262 400.90666,47.482051 374.78291,43.137445 347.23305,44.245761 319.85565,43.401148 291.62598,43.358659 249.12288,56.749998 208.72622,70.802788 165.88526,76.60603 132.25636,113.5 c -19.71683,20.64914 -36.752759,43.443 -45.207629,73.1017 -15.84266,50.91076 -33.85273,53.91347 -33.66526,103.88135 -2.31134,21.68861 -6.36225,42.50743 -6.25211,65.40678 -1.0992,25.04755 4.56481,50.49293 11.06144,75.98729 7.86616,31.02887 21.69882,33.28367 18.75635,76.94915 -2.53606,24.56265 -3.4833,33.63469 11.65406,54.23366 19.683789,32.33626 52.841659,13.14612 66.256959,2.99728 35.39877,-26.97168 27.31572,7.40451 48.09322,51.45974 7.91012,15.2747 12.47161,31.98452 17.31356,48.57415 8.54371,13.30373 -5.24284,18.80766 14.9089,33.66526 13.52557,8.74873 14.43184,0.56283 15.89994,-7.83578 2.59509,-14.54945 5.11631,-8.80311 6.22294,-1.30193 -0.0565,6.70988 3.55157,15.10144 6.25212,17.79449 4.69764,3.45226 7.69491,7.97629 11.54237,7.21398 2.88559,1.19208 5.77119,-4.80617 8.65678,-15.38983 4.01007,-12.7034 7.10831,-19.79552 5.29025,3.36653 -0.837,10.47337 1.81693,15.71034 9.13772,13.94703 16.94594,2.46132 13.29808,-5.37426 13.94703,-11.06144 6.92773,-22.75632 5.23235,-7.24763 5.29025,0.48093 -0.79237,13.52132 4.17339,14.75864 10.09958,13.94704 16.88892,2.72722 15.17753,-3.86787 15.41901,-9.2494 0.84641,-12.13358 1.73177,-8.43991 2.00623,-0.85018 -1.02251,16.29696 7.23147,6.87003 11.43069,8.17585 9.10797,1.97549 12.40346,-1.59729 11.54238,-9.13771 -1.06313,-10.75927 1.3858,-8.74745 5.29025,-1.4428 0.57977,7.60089 1.35335,10.70883 10.58051,8.99685 12.66741,1.80148 9.62973,-2.9522 10.09958,-8.99685 0.85018,-24.07588 0.33196,-29.86784 3.36652,-5.77119 2.17797,26.28067 7.57232,13.0974 11.43069,11.23148 6.05204,-3.40238 7.61901,-7.92602 8.28753,-12.67427 1.59813,-7.01882 7.26651,-24.68599 4.80932,-0.48094 -0.29158,12.23054 5.20498,8.2543 9.13771,8.65678 11.29495,0.1606 11.82369,-9.15306 12.02331,-18.75635 -0.13304,-13.3858 6.64855,-24.88578 11.06144,-37.03178 z"
     id="path22348"
     inkscape:connector-curvature="0"
     sodipodi:nodetypes="ccccccccccccccccccccccccccccccccccccccccccccccccccc" />
  <path
     style="fill:#000000;fill-opacity:1;stroke:#000000;stroke-width:1px;stroke-linecap:butt;stroke-linejoin:miter;stroke-opacity:1"
     d="m 382.9193,455.35626 61.21267,16.32338 h 29.24606 l 85.69775,-46.92972 13.60281,-46.92972 v -25.16521 l -12.24253,-14.28296 h -33.3269 l -142.14944,82.97719 z"
     id="path22327"
     inkscape:connector-curvature="0" />
  <path
     style="fill:#000000;fill-opacity:1;stroke:#000000;stroke-width:1.00001669px;stroke-linecap:butt;stroke-linejoin:miter;stroke-opacity:1"
     d="m 303.33981,455.35567 -61.21427,16.32351 h -29.24683 l -85.69999,-46.93006 -13.60317,-46.93007 v -25.16539 l 12.24285,-14.28307 h 33.32778 l 142.15315,82.9778 z"
     id="path22327-7"
     inkscape:connector-curvature="0" />
  <path
     style="fill:#000000;fill-opacity:1;stroke:#000000;stroke-width:1px;stroke-linecap:butt;stroke-linejoin:miter;stroke-opacity:1"
     d="m 310.14423,629.81239 c -15.31014,15.91336 -34.10025,6.98717 -16.32338,-39.44817 l 30.9464,-65.97366 c 5.60008,-10.6892 17.88199,-16.93602 27.54571,-0.34007 l 29.9262,69.03429 c 11.53684,19.00781 9.71825,62.28142 -14.48217,38.04663 l -7.62241,-7.78036 c -3.42876,-3.70719 -11.03954,-5.71693 -15.30317,-1.70035 -3.51191,2.95267 -6.90266,6.20821 -13.94289,0.34007 -5.32926,-3.86131 -9.40907,-2.59681 -13.26274,0.34007 z"
     id="path22346"
     inkscape:connector-curvature="0"
     sodipodi:nodetypes="ccccccccccc" />
  <path
     style="fill:#ffffff;fill-opacity:1;stroke:#000000;stroke-width:1px;stroke-linecap:butt;stroke-linejoin:miter;stroke-opacity:1"
     d="m 134.66789,615.18936 c -0.53515,-8.30174 -14.47258,-24.5874 1.02021,-28.90599 l 11.90246,-3.06063 c 8.5786,-5.41013 12.35706,-0.65491 16.70471,6.54031 8.74606,12.84137 10.09121,21.77823 10.08189,30.62697 0.17626,11.22219 2.7784,21.29064 10.24336,31.24523 6.85632,14.09827 14.96707,29.43094 12.62033,42.79052 -1.52795,12.39255 3.45098,21.68659 8.50176,30.94641 9.61706,14.6864 21.81413,18.38407 22.10457,7.82162 0.1347,-9.04243 7.28884,-7.72285 13.94289,-7.14148 12.63348,0.72749 16.45892,6.18124 15.98331,13.94288 -0.25318,22.36679 2.56891,9.88051 5.10106,0.68014 2.83414,-12.74535 9.46058,-8.63608 14.9631,-9.52197 13.304,-0.90113 14.19785,5.99017 13.94288,13.60282 1.33632,32.98573 5.46805,5.45921 5.7812,0.34007 1.02672,-15.74154 6.38758,-12.10947 17.00352,-13.26275 7.19417,-0.31893 14.9844,-1.68094 15.98331,8.84183 4.10777,22.51742 6.6157,7.03851 9.52197,1.02022 3.54737,-7.89208 6.11195,-10.11197 16.66345,-10.20212 10.74798,0.0419 14.71547,-0.94941 14.28296,15.64324 1.45882,29.65539 5.89471,7.62632 5.44113,0.34007 0.93982,-20.38408 10.26446,-18.23593 15.30317,-18.70387 15.62958,-1.07605 12.43988,5.1836 14.62303,13.26275 9.0684,26.00601 10.45597,9.1533 9.86204,-1.36029 1.28753,-18.66494 8.44089,-15.33305 14.62303,-15.64323 9.77618,-0.509 10.04004,2.80704 11.56239,7.48154 4.79458,12.313 12.1903,4.92832 17.68366,-0.68014 15.54641,-20.07365 15.4222,-33.69806 14.62303,-41.82866 -2.66307,-13.06526 3.78556,-26.40662 11.56239,-39.78824 9.03361,-16.48683 6.03003,-34.61419 15.98331,-52.03077 4.48907,-9.32894 9.7704,-16.79041 18.70388,-15.64324 l 12.5826,5.10105 c 10.02964,2.1357 7.60457,8.42297 4.42092,14.9631 -4.0224,12.80932 -8.33797,25.61864 -10.20211,38.42796 -4.01518,18.85162 -4.59161,37.6993 -5.7812,42.5088 -2.53289,10.67376 -4.58389,21.12264 -2.38049,29.58613 1.13158,4.9091 4.10928,15.30107 3.74077,20.40423 -0.11136,7.9619 -3.9859,15.53588 -8.50176,20.74429 -18.59052,18.59052 -36.59389,38.35531 -55.77155,55.77155 -7.12728,6.95736 -13.99953,15.18991 -21.08436,23.80493 -15.41448,16.45921 -29.36698,23.15499 -47.77989,23.97497 -14.63494,0.26539 -25.06471,-2.63631 -36.55758,-6.63138 -17.13463,-6.87106 -24.7997,-1.48739 -34.68718,1.02021 -19.99661,9.97121 -46.3255,5.46207 -57.81198,-0.34007 -3.80799,-1.8861 -28.7593,-14.503 -39.44816,-25.84535 -8.64212,-7.23299 -21.8828,-28.8912 -36.38754,-38.42796 -13.04256,-11.92126 -40.87644,-35.34385 -38.08789,-54.07119 2.63041,-9.84699 4.91818,-18.95975 4.42092,-22.10458 1.3311,-16.62327 -4.44984,-28.97932 -7.14148,-43.18895 -4.5644,-12.25617 -9.57373,-45.87376 -9.86204,-53.05098 z"
     id="path22350"
     inkscape:connector-curvature="0"
     sodipodi:nodetypes="cccccccccccccccccccccccccccccccccccccccccccccccccc" />
</svg>
