<?xml version="1.0" encoding="UTF-8" standalone="no"?>
<svg
   xmlns:dc="http://purl.org/dc/elements/1.1/"
   xmlns:cc="http://creativecommons.org/ns#"
   xmlns:rdf="http://www.w3.org/1999/02/22-rdf-syntax-ns#"
   xmlns:svg="http://www.w3.org/2000/svg"
   xmlns="http://www.w3.org/2000/svg"
   xmlns:sodipodi="http://sodipodi.sourceforge.net/DTD/sodipodi-0.dtd"
   xmlns:inkscape="http://www.inkscape.org/namespaces/inkscape"
   fill="#000000"
   height="24"
   viewBox="0 0 24 24"
   width="24"
   version="1.1"
   id="svg6"
   sodipodi:docname="no_repeat_scheduled.svg"
   inkscape:version="0.92.1 r15371">
  <metadata
     id="metadata12">
    <rdf:RDF>
      <cc:Work
         rdf:about="">
        <dc:format>image/svg+xml</dc:format>
        <dc:type
           rdf:resource="http://purl.org/dc/dcmitype/StillImage" />
        <dc:title />
      </cc:Work>
    </rdf:RDF>
  </metadata>
  <defs
     id="defs10" />
  <sodipodi:namedview
     pagecolor="#ffffff"
     bordercolor="#666666"
     borderopacity="1"
     objecttolerance="10"
     gridtolerance="10"
     guidetolerance="10"
     inkscape:pageopacity="0"
     inkscape:pageshadow="2"
     inkscape:window-width="1360"
     inkscape:window-height="706"
     id="namedview8"
     showgrid="false"
     inkscape:zoom="27.812867"
     inkscape:cx="5.2610245"
     inkscape:cy="12.412404"
     inkscape:window-x="-8"
     inkscape:window-y="-8"
     inkscape:window-maximized="1"
     inkscape:current-layer="svg6" />
  <path
     style="opacity:1;fill:#feffff;fill-opacity:1;stroke:none;stroke-width:0.49824607;stroke-linecap:round;stroke-linejoin:round;stroke-miterlimit:4;stroke-dasharray:none;stroke-dashoffset:0;stroke-opacity:1;paint-order:stroke fill markers"
     d="M 12 3.25 A 8.7508774 8.7508764 0 0 0 3.2871094 11.25 L 0.5 11.25 L 5 17.25 L 5.0039062 17.244141 A 8.7508774 8.7508764 0 0 0 12 20.75 A 8.7508774 8.7508764 0 0 0 20.712891 12.75 L 23.5 12.75 L 19 6.75 L 18.996094 6.7558594 A 8.7508774 8.7508764 0 0 0 12 3.25 z "
     id="path4503" />
  <path
     d="m 19,8 -3,4 h 2 c 0,3.31 -2.69,6 -6,6 -1.01,0 -1.97,-0.25 -2.8,-0.7 L 7.74,18.76 C 8.97,19.54 10.43,20 12,20 c 4.42,0 8,-3.58 8,-8 h 2 z M 6,12 c 0,-3.31 2.69,-6 6,-6 1.01,0 1.97,0.25 2.8,0.7 L 16.26,5.24 C 15.03,4.46 13.57,4 12,4 7.58,4 4,7.58 4,12 H 2 l 3,4 3,-4 z"
     id="path2"
     style="fill:none;fill-opacity:1;stroke:#000b00;stroke-width:0.5;stroke-miterlimit:4;stroke-dasharray:none;stroke-opacity:1"
     inkscape:connector-curvature="0"
     sodipodi:nodetypes="cccsccsccccsccsccccc" />
  <path
     d="M0 0h24v24H0z"
     fill="none"
     id="path4" />
  <path
     inkscape:connector-curvature="0"
     d="m 12,10 c -1.1,0 -2,0.9 -2,2 0,1.1 0.9,2 2,2 1.1,0 2,-0.9 2,-2 0,-1.1 -0.9,-2 -2,-2 z"
     id="path4-5"
     style="stroke:#000000;stroke-opacity:1;fill:#000000;stroke-width:0.5;stroke-miterlimit:4;stroke-dasharray:none;fill-opacity:1" />
</svg>
